<svg xmlns="http://www.w3.org/2000/svg" viewBox="0 0 491.22 261.19"><title>box</title><g id="Layer_2" data-name="Layer 2"><g id="Layer_1-2" data-name="Layer 1"><g id="PygXQP.tif"><path d="M146.69,266.65c-5.7-.21-11.4.43-17-.5a53.75,53.75,0,0,0-7.92-.31c-4.13-.07-8.25-.62-12.42-.43-1.41.06-2.85.3-4.23.24-2.33-.11-4.67-.12-7-.24-3.49-.18-7,0-10.52-.17-3.25-.12-6.51,0-9.77,0-2.4,0-4.81.12-7.22.08-2.11,0-4.21-.16-6.32-.14-3,0-6.09.3-9.13.33-3.86,0-7.69-.27-11.55-.23a34.57,34.57,0,0,1-7.48-.35,23.27,23.27,0,0,0-4.07-.62,57.73,57.73,0,0,1-8.32-.66c-3-.51-6.08-.51-8.68-2.14-.18-.12-1.56-2.11-2-2.64a10.79,10.79,0,0,1-2.35-7.38c.15-3.53.13-7,.13-10.44,0-3.13-.07-6.25-.11-9.4-.08-6.26.18-12.67-.3-19.56-.28-4-.73-8.1-.85-12.17-.11-3.83-.49-7.65-.49-11.48,0-3-.11-6-.12-8.94s-.24-6.13-.19-9.19c.07-4.27.14-8.55.07-12.83,0-2.68-.4-5.36-.37-8.06.06-6.19-.15-12.42-.19-18.84,0-5.37-.27-10.83-.1-16.33.15-4.8,0-9.6.08-14.41.16-5.73.55-11.44.23-17-.47-8.23-.22-16.14,0-24.9.06-2.64.25-5.31.19-8,0-1.74,0-3.52.09-5.28.13-2.36.33-4.74.39-7.12,0-.4-.19-.83-.09-1.19.56-2.08.19-4.15.18-6.16,0-3.47-.05-6.93-.24-10.32-.08-1.58.22-3.22-.3-4.68-.39-1.11.1-2.08.23-3.09.06-.44.41-.61.87-.7,1.28-.26,10.83.2,12.24,0,1.72-.29,3.38-.86,5.11-1.11a55.81,55.81,0,0,1,7.7-.65c1.78,0,3.57.09,5.33,0,2.8-.07,5.59-.55,8.39-.51.49,0,3.93.25,5.21.27,5.41.07,10.82-.19,16.25.4a44.81,44.81,0,0,0,12.25-.71,4.33,4.33,0,0,1,1.86.07,12.56,12.56,0,0,0,4,.25,27.27,27.27,0,0,1,6.06-.14,59.4,59.4,0,0,0,10.26.23c3.58-.12,7.15.33,10.71.1a35,35,0,0,1,6.94.22,17.77,17.77,0,0,0,6.51-.39c3.33-.77,6.69-.43,10-.27,2.87.13,5.75.39,8.62.35,4.3-.07,8.6-.27,12.89-.44,2.71-.1,5.42-.14,8.11-.39,4-.38,8-.25,12-.24,3.4,0,6.81.07,10.23-.1,4.6-.23,9.2-1.1,13.89-.65,2.54.24,5.09.33,7.62.69,3.19.46,6.39.64,9.59.84,2.78.17,5.55.17,8.32.18,3.66,0,7.32.52,11,.72,3.31.18,6.61.15,9.92.3,2.51.11,5,.65,7.53.22a29.53,29.53,0,0,1,4-.27c2.51-.06,5,0,7.54.14,3.76.17,7.51,0,11.27.24,2.48.13,5,0,7.45.07,3.83.12,7.61-.48,11.42-.64,3.19-.14,6.38-.44,9.58-.36,2.49.06,5,.35,7.44.44,4.67.16,9.35.14,14,.24a45.47,45.47,0,0,0,5.09-.08,142.83,142.83,0,0,1,15.36-.72c5,.06,10,.33,14.93.53,2.88.12,5.77.57,8.64.55a126.74,126.74,0,0,1,15.82,1.2,42.43,42.43,0,0,0,5.75.07c2.32,0,4.65,0,7,0,3.14-.07,6.24-.66,9.36-.91a15,15,0,0,0,2.84-.18,28.3,28.3,0,0,1,4.87-.48c2.56-.21,5.15-.09,7.72-.2,2.84-.12,5.66-.38,8.51-.22,2,.1,4.05.13,6.07.07,3.49-.1,7-.34,10.48-.42,3.73-.09,7.45-.11,11.16-.55A32.27,32.27,0,0,1,470.71,9a59.45,59.45,0,0,0,8,.12,29.8,29.8,0,0,1,7.6.24,52.09,52.09,0,0,0,5.7.94c1.8.14,3.44.74,3.88,2.86.12.58.85.9.87,1.5.05,1.87.54,3.68.54,5.56a31.89,31.89,0,0,0,.23,4.78c.4,2.53,1,5.06.19,7.63a1.41,1.41,0,0,0,0,.58c.64,3.7,0,7.42.25,11.13s-.17,7.65-.06,11.47c.09,3.47.1,6.93.16,10.4a4.77,4.77,0,0,0,.35,2V78.62a27.13,27.13,0,0,0-.34,5.17c.06,4.27.24,8.54,0,12.82-.12,2.41,0,4.84,0,7.26,0,2.74-.3,5.48-.13,8.22a15.38,15.38,0,0,1-.11,2.54,41.12,41.12,0,0,0-.37,6.74c.21,3.18-.3,6.32-.24,9.49s-.08,6.14-.18,9.21c-.07,2.38.08,4.76,0,7.14a19.48,19.48,0,0,0-.21,2.54c.45,5.73,0,11.48.57,17.22.26,2.89,0,5.82.07,8.73,0,.85.15,1.7.11,2.54a102,102,0,0,0-.34,11.46,15.28,15.28,0,0,1,.13,2.25c-.15,1.56-.19,3.13-.32,4.69-.23,2.85.38,5.66.24,8.51A65.59,65.59,0,0,0,498,216c.43,3.78.42,7.68.62,11.61.25,5.06,1,10.29.47,15.39-.18,1.9.55,4,.09,5.89a13.5,13.5,0,0,0-.29,3.14,7.21,7.21,0,0,1-.27,2.8A44.32,44.32,0,0,0,497,259.6c-.4,1.24-1.2,2.22-1.63,3.47a2.81,2.81,0,0,1-2.56,1.78c-1.73.21-3.45.5-5.18.81-.86.15-6.48.58-7.06.57-3.88-.11-7.77.09-11.72.13-1.06,0-2,.37-3.1.3a55.12,55.12,0,0,0-9.71.25c-3.73.4-20.39,1-23.52,1-1.66,0-3.32.16-4.95.11-3.66-.12-7.27.05-10.82,0a33.62,33.62,0,0,0-4.14.08c-2.84.29-16,.93-19.78.46-3.43-.42-6.88.09-10.33-.36-4.44-.57-8.9-.27-13.34-.73-3.23-.33-6.46-.31-9.68-.59-5.13-.45-10.26-1.05-15.39-1.55-2.61-.26-5.23-.5-7.84-.65-1.23-.07-2.44-.49-3.67-.5-2.51,0-5,0-7.55,0-2.13,0-4.28-.09-6.4.07-2.41.17-4.84.26-7.27.27A77.35,77.35,0,0,0,302,265c-4,.5-8,.25-12,.68-1.52.16-3.06.28-4.59.41-2.45.21-4.92.28-7.38.32-2.16,0-4.35,0-6.5.07-4.47.16-9-.15-13.46-.18-2.2,0-4.42-.15-6.63-.12-2.44,0-4.86.27-7.31.2-3.69-.11-7.37,0-11,.05-6.61.14-13.19.29-19.75,0-4.13-.15-8.23,0-12.33-.22-3.7-.22-8,0-12-.16-4.37-.2-8.65,0-12.89.15-1.28,0-2.54.19-3.82.13-2.34-.11-4.67-.2-7-.21a56.07,56.07,0,0,0-7.9.53C155.73,266.9,148.4,266.72,146.69,266.65Zm338-5.62v0a10.43,10.43,0,0,0,1.86,0c1.74-.36,3.73-.24,4.67-2.09a9.56,9.56,0,0,1,.36-1,16.91,16.91,0,0,0,2.65-9.32,71.33,71.33,0,0,1,.33-8.55,11.9,11.9,0,0,0,.25-2.74c-.36-4.35-.62-8.66-.82-12.89-.1-2.22-.17-4.42-.35-6.58s-.53-4.15-.69-6.18c-.24-3.12,0-6.17-.26-9.24a16.61,16.61,0,0,1-.27-3.7,37.59,37.59,0,0,0,.37-6.35c-.05-2.75-.18-5.48,0-8.23.09-1.17,0-2.37.13-3.53s-.4-2.18-.06-3.44A12.86,12.86,0,0,0,493,173c-.3-4.44-.58-8.88-.53-13.33,0-.71-.3-1.4,0-2.13a4.88,4.88,0,0,0,.1-2.6c-.15-1-.14-2-.23-3a56.86,56.86,0,0,1,.17-7.15c.11-3-.11-5.94.17-8.91.31-3.29.05-6.59.34-9.89.3-3.45-.07-6.91.26-10.38.38-4,.23-8.09.38-12.14.06-1.54-.24-3-.13-4.6.18-2.47.34-4.94.35-7.42,0-3.46-.43-6.88-.16-10.37a128.12,128.12,0,0,0-.1-15c-.06-1.56-.23-3.14-.21-4.67.05-3.68-.05-7.36,0-11,0-4,0-8.09,0-12.14,0-1-.52-5-.56-5.17-.17-1.05.08-2.09,0-3.13-.18-1.65-.32-3.32-.37-4.94-.09-2.71-.59-5.39-.53-8.1.05-1.75-.52-2.27-2.24-2.32a2.54,2.54,0,0,1-.74-.22,21.77,21.77,0,0,0-7.17-1.46,93,93,0,0,1-10.29-.08A32.33,32.33,0,0,0,464,13a23.15,23.15,0,0,1-5,.31c-1.66-.13-3.3,0-4.94,0-1.29,0-2.6.11-3.9.09a21,21,0,0,0-2.74.15,28.79,28.79,0,0,1-5.08.42,81.14,81.14,0,0,0-10.46-.21c-.58,0-3.32.26-3.73.25a66.76,66.76,0,0,0-8.83.39c-.84.1-1.69.19-2.53.26-2.15.15-4.32.17-6.45.46a88.07,88.07,0,0,1-11.93.63c-1.95,0-3.91-.08-5.87,0a22.89,22.89,0,0,1-4.78-.23,60.26,60.26,0,0,0-9.05-.94c-3.68-.2-7.36-.13-11-.42-4.07-.33-8.16-.48-12.24-.74-2.25-.14-4.48.16-6.75,0a47.44,47.44,0,0,0-7.15.24c-3.25.26-6.49.62-9.76.69-2,0-4.05-.08-6.08-.12-.5,0-3.76-.18-4.41-.16-3.83.13-7.64-.57-11.46-.52-1.55,0-3.1,0-4.65,0-2.38-.06-4.74.45-7.13.48-2.19,0-4.37.21-6.54.45-2,.22-3.92-.09-5.87,0-1,0-4.72,0-5.22,0l-3.61-.1c-4-.08-8.05-.21-12.08-.28a43.43,43.43,0,0,0-4.72.3,12,12,0,0,1-2.32.18,33.49,33.49,0,0,1-7.62-.12,42.43,42.43,0,0,0-7.8-.25c-.38,0-3.08-.34-3.57-.34-3.49,0-7-.76-10.47-.67s-7.05,0-10.59-.28-6.78-.81-10.17-1a44.5,44.5,0,0,0-7-.27c-4,.37-8,.69-11.92,1-1,.07-1.93.15-2.9.14-5,0-10-.32-14.94,0-4.72.27-9.44.39-14.16.58-.62,0-3.59.22-4.21.29a57.79,57.79,0,0,1-10.44,0c-2.43-.17-4.86.1-7.29-.25a36.91,36.91,0,0,0-4.53.21,27,27,0,0,1-8.35.63,25.07,25.07,0,0,0-3-.22c-4.44.06-8.9.11-13.39,0-4-.13-8.1.5-12-.52-1.75-.46-3.32.85-5.08.46a27.73,27.73,0,0,0-3.45-.25,9.6,9.6,0,0,0-3.54-.08c-4.18,1.22-8.34.32-12.46.62a1.46,1.46,0,0,1-.54-.12,12,12,0,0,0-5.15-.62,14.5,14.5,0,0,1-4.1.18,12.81,12.81,0,0,0-4.28,0,28,28,0,0,1-7.7.18c-2.24-.32-12.62.06-13.63,0a26.22,26.22,0,0,0-8.08.85c-1.8.49-3.49,1.62-5.43,1.53-.49,0-4.33.56-6.08.48-.86,0-.86,1.36-.81,2.15.17,2.65.39,5.31.36,8,0,2.37.19,4.73,0,7.14-.27,4.62-.36,9.25-.53,13.81-.19,4.9-.41,9.72-.46,14.37,0,3.09-.46,6.09-.23,9a15.16,15.16,0,0,1,.17,2.85,38.1,38.1,0,0,0,0,8.06c.52,5.11.09,10.32,0,15.54-.15,6-.12,12-.18,17.93-.05,5.65.11,11.26.11,16.78,0,1.58,0,3.16,0,4.72,0,3,.24,5.87.23,8.77a44.57,44.57,0,0,0,0,6.33,34.57,34.57,0,0,1,.42,4.44c0,3-.29,5.95-.16,8.93,0,1.3,0,2.6,0,3.89,0,5.05.23,10.09.22,15.15a47,47,0,0,0,.12,6.81,39.15,39.15,0,0,1,.36,6.11c-.06,4.76.68,9.54.94,14.21.19,3.49.35,6.85.45,10.12.08,2.64-.2,5.25-.12,7.81s.14,5.18.26,7.74c.21,4.39-.23,8.81-.19,13.31a13.62,13.62,0,0,0,1.47,6.23,4.42,4.42,0,0,0,3.35,2.52c1.67.3,3.38.36,5,.66a31.84,31.84,0,0,0,5.61.66,22,22,0,0,1,3.73.29,45.37,45.37,0,0,0,10.94.89,29.78,29.78,0,0,1,5.74-.07c.93.12,5.47.34,6.48.26a64.61,64.61,0,0,1,9.52-.36c3,.23,5.93.05,8.89,0,3.17-.07,6.33.1,9.49-.15a11.64,11.64,0,0,1,1.67,0,45,45,0,0,0,6.66.19,11.87,11.87,0,0,1,3.26.1,38.3,38.3,0,0,0,6.44.29c3.72-.05,7.42-.32,11.11-.2.62,0,5.9.26,7.94.46,2.36.22,4.73-.22,7.08.08a86.6,86.6,0,0,0,10.93.53c2.75,0,5.51-.14,8.27.09a42.42,42.42,0,0,0,8.8,0,57.7,57.7,0,0,1,10.28-.46c.93,0,1.85.23,2.78.26,3.58.1,7.15-.48,10.79-.41,2.24,0,4.48-.07,6.74-.07,3.74,0,7.52,0,11.35.09.46,0,2.76,0,3.09,0,4,.35,8.1,0,12.18.26,2.77.18,5.54.15,8.32.12,3,0,6.09,0,9.13-.18,2.65-.17,5.36.08,8,0,1.8-.06,3.62-.08,5.46,0a39.5,39.5,0,0,0,5.1-.15c3.1-.19,6.26,0,9.39,0a23.6,23.6,0,0,1,4,0,31.23,31.23,0,0,0,7.58.34c3.23-.21,6.47-.14,9.69-.28q4-.17,8-.51c2.17-.19,4.32-.67,6.52-.25a3.55,3.55,0,0,0,1.07-.09,94,94,0,0,1,9.42-.88c3.82,0,7.6-.22,11.4-.25,1.07,0,2.18.37,3.18.12a18.76,18.76,0,0,1,3.74-.13,23.28,23.28,0,0,0,3.07.13,24.84,24.84,0,0,1,6.33-.09c1.69.11,3.4.19,5.11.45,3.11.49,6.24.63,9.36.84,1,.06,1.93.38,2.89.42,2.8.09,5.6.38,8.4.59a20.47,20.47,0,0,0,4.53.2c1.78-.27,3.46.25,5.18.25,1.24,0,2.53.33,3.72.3,1.4,0,2.81.18,4.21,0,2.19-.23,4.4.25,6.59.36a49,49,0,0,0,8.57.16c2.68-.33,5.37.15,8.08.05,4.36-.17,8.88.11,13.45-.65,2.19-.36,4.41,0,6.64-.06,2.58-.06,5.17-.29,7.81-.14a36.28,36.28,0,0,0,6.75-.07A43,43,0,0,1,441,263c1.87,0,3.75,0,5.62-.09,1.2,0,2.39-.2,3.58-.15,2.44.11,4.78-.43,7.21-.35,2,.06,3.94-.3,5.91-.35,2.26-.05,4.51-.14,6.75-.19C475,261.76,479.9,261.32,484.7,261Z" transform="translate(-8.13 -7.52)"/></g></g></g></svg>