<svg xmlns="http://www.w3.org/2000/svg" viewBox="0 0 491.22 230.44"><title>box</title><g id="Layer_2" data-name="Layer 2"><g id="Layer_1-2" data-name="Layer 1"><g id="PygXQP.tif"><path d="M146.69,236.65c-5.7-.21-11.4.43-17-.5a53.75,53.75,0,0,0-7.92-.31c-4.13-.07-8.25-.62-12.42-.43-1.41.06-2.85.3-4.23.24-2.33-.11-4.67-.12-7-.24-3.49-.18-7,0-10.52-.17-3.25-.12-6.51,0-9.77,0-2.4,0-4.81.12-7.22.08-2.11,0-4.21-.16-6.32-.14-3,0-6.09.3-9.13.33-3.86,0-7.69-.27-11.55-.23a34.57,34.57,0,0,1-7.48-.35,23.27,23.27,0,0,0-4.07-.62,57.73,57.73,0,0,1-8.32-.66c-3-.51-6.08-.51-8.68-2.14-.18-.12-1.56-2.11-2-2.64a10.79,10.79,0,0,1-2.35-7.38c.15-3.53.13-7,.13-10.44,0-3.13-.07-6.25-.11-9.4-.08-6.26.18-12.67-.3-19.56-.28-4-.73-8.07-.85-11.73-.11-3.46-.49-6.67-.49-9.77,0-2.42-.11-4.76-.12-7.07s-.24-4.74-.19-7.12c.07-3.32.14-6.7.07-10.29,0-2.25-.4-4.57-.37-7,.06-5.64-.15-12.13-.19-17,0-4.06-.27-7.48-.1-10.72.15-2.84,0-5.52.08-8.38A86.4,86.4,0,0,0,8.5,81.61c-.47-6.42-.22-15,0-23.71.06-2.64.25-5.31.19-8,0-1.74,0-3.52.09-5.28.13-2.36.33-4.74.39-7.12,0-.4-.19-.83-.09-1.19.56-2.08.19-4.15.18-6.16,0-3.47-.05-6.93-.24-10.32-.08-1.58.22-3.22-.3-4.68-.39-1.11.1-2.08.23-3.09.06-.44.41-.61.87-.7,1.28-.26,10.83.2,12.24,0,1.72-.29,3.38-.86,5.11-1.11a55.81,55.81,0,0,1,7.7-.65c1.78,0,3.57.09,5.33,0,2.8-.07,5.59-.55,8.39-.51.49,0,3.93.25,5.21.27,5.41.07,10.82-.19,16.25.4a44.81,44.81,0,0,0,12.25-.71,4.33,4.33,0,0,1,1.86.07,12.56,12.56,0,0,0,4,.25,27.27,27.27,0,0,1,6.06-.14,59.4,59.4,0,0,0,10.26.23c3.58-.12,7.15.33,10.71.1a35,35,0,0,1,6.94.22,17.77,17.77,0,0,0,6.51-.39c3.33-.77,6.69-.43,10-.27,2.87.13,5.75.39,8.62.35,4.3-.07,8.6-.27,12.89-.44,2.71-.1,5.42-.14,8.11-.39,4-.38,8-.25,12-.24,3.4,0,6.81.07,10.23-.1,4.6-.23,9.2-1.1,13.89-.65,2.54.24,5.09.33,7.62.69,3.19.46,6.39.64,9.59.84,2.78.17,5.55.17,8.32.18,3.66,0,7.32.52,11,.72,3.31.18,6.61.15,9.92.3,2.51.11,5,.65,7.53.22a29.53,29.53,0,0,1,4-.27c2.51-.06,5,0,7.54.14,3.76.17,7.51,0,11.27.24,2.48.13,5,0,7.45.07,3.83.12,7.61-.48,11.42-.64,3.19-.14,6.38-.44,9.58-.36,2.49.06,5,.35,7.44.44,4.67.16,9.35.14,14,.24a45.47,45.47,0,0,0,5.09-.08,142.83,142.83,0,0,1,15.36-.72c5,.06,10,.33,14.93.53,2.88.12,5.77.57,8.64.55a126.74,126.74,0,0,1,15.82,1.2,42.43,42.43,0,0,0,5.75.07c2.32,0,4.65,0,7,0,3.14-.07,6.24-.66,9.36-.91a15,15,0,0,0,2.84-.18,28.3,28.3,0,0,1,4.87-.48c2.56-.21,5.15-.09,7.72-.2,2.84-.12,5.66-.38,8.51-.22,2,.1,4.05.13,6.07.07,3.49-.1,7-.34,10.48-.42,3.73-.09,7.45-.11,11.16-.55A32.27,32.27,0,0,1,470.71,9a59.45,59.45,0,0,0,8,.12,29.8,29.8,0,0,1,7.6.24,52.09,52.09,0,0,0,5.7.94c1.8.14,3.44.74,3.88,2.86.12.58.85.9.87,1.5.05,1.87.54,3.68.54,5.56a31.89,31.89,0,0,0,.23,4.78c.4,2.53,1,5.06.19,7.63a1.41,1.41,0,0,0,0,.58c.64,3.7,0,7.42.25,11.13s-.17,7.65-.06,11.47c.09,3.47.1,6.93.16,10.4a4.77,4.77,0,0,0,.35,2V78.49a21,21,0,0,0-.34,4.44c.06,3.43.24,6.31,0,8.91a39.42,39.42,0,0,0,0,4.22c0,1.53-.3,3-.13,4.54a4.9,4.9,0,0,1-.11,1.42,13.82,13.82,0,0,0-.37,3.94c.21,2-.3,4-.24,6.41s-.08,4.84-.18,7.75c-.07,2.26.08,4.69,0,6.92a16.81,16.81,0,0,0-.21,2.34c.45,5.2,0,9.91.57,14.44a64.36,64.36,0,0,1,.07,6.8c0,.66.15,1.32.11,2a63.24,63.24,0,0,0-.34,9.08,10.27,10.27,0,0,1,.13,1.85c-.15,1.29-.19,2.62-.32,4-.23,2.46.38,5,.24,7.73A65.77,65.77,0,0,0,498,186c.43,3.78.42,7.68.62,11.61.25,5.06,1,10.29.47,15.38-.18,1.91.55,4,.09,5.9a13.5,13.5,0,0,0-.29,3.14,7.23,7.23,0,0,1-.27,2.8,43.42,43.42,0,0,0-1.64,4.78c-.4,1.24-1.2,2.21-1.63,3.45a2.8,2.8,0,0,1-2.56,1.77c-1.73.2-3.45.47-5.18.77-.86.15-6.48.53-7.06.51-3.88-.14-7.77,0-11.72,0-1.06,0-2,.34-3.1.26a56.14,56.14,0,0,0-9.71.14c-3.73.35-20.39.74-23.52.74-1.66,0-3.32.13-4.95.06-3.66-.16-7.27,0-10.82-.13a33.62,33.62,0,0,0-4.14.06c-2.84.26-16,.85-19.78.47-3.43-.34-6.89.3-10.34,0-4.46-.35-8.92.24-13.38.1-3.24-.1-6.47.16-9.7.12-5.14-.07-10.28-.29-15.42-.48-2.61-.1-5.23-.2-7.84-.23-1.24,0-2.45-.39-3.67-.36-2.52.07-5,.16-7.55.2-2.13,0-4.27-.06-6.39.08a67.26,67.26,0,0,1-7.24.07c-3.12-.13-6.24-.28-9.34-.19-3.95.1-8-.63-11.95-.53-1.52,0-3.05,0-4.57.06-2.44,0-4.91-.05-7.36-.13-2.15-.08-4.34-.22-6.49-.22-4.47,0-9-.4-13.46-.47-2.21,0-4.43-.19-6.64-.16-2.44,0-4.87.27-7.32.22-3.71-.08-7.39,0-11.06.17-6.63.25-13.22.52-19.79.37-4.15-.09-8.25.11-12.35-.12-3.7-.22-8,0-12-.16-4.37-.2-8.65,0-12.89.15-1.28.05-2.54.19-3.82.13-2.34-.11-4.67-.2-7-.21a56.07,56.07,0,0,0-7.9.53C155.73,236.9,148.4,236.72,146.69,236.65Zm338-5.71v0a10.46,10.46,0,0,0,1.86,0c1.74-.36,3.73-.22,4.67-2.06.17-.33.16-.73.36-1a16.85,16.85,0,0,0,2.65-9.3,71.16,71.16,0,0,1,.33-8.54,11.9,11.9,0,0,0,.25-2.74c-.36-4.35-.62-8.66-.82-12.88-.1-2.22-.17-4.42-.35-6.59s-.53-4.15-.69-6.17c-.24-3.13,0-6.17-.26-9a13.73,13.73,0,0,1-.27-3.34,28.34,28.34,0,0,0,.37-5.45,54.66,54.66,0,0,1,0-6.66c.09-.92,0-1.86.13-2.77s-.4-1.69-.06-2.67a7.8,7.8,0,0,0,.12-3.17A103.64,103.64,0,0,1,492.5,138c0-.59-.3-1.16,0-1.77a3.55,3.55,0,0,0,.1-2.21c-.15-.86-.14-1.75-.23-2.64a49.2,49.2,0,0,1,.17-6.6c.11-2.87-.11-5.87.17-8.38.31-2.79.05-5.24.34-7.44s-.07-4.38.26-6.35a66.52,66.52,0,0,0,.38-6.74c.06-.86-.24-1.72-.13-2.64a39,39,0,0,0,.35-4.65c0-2.32-.43-4.87-.16-7.87a122.22,122.22,0,0,0-.1-14.65c-.06-1.56-.23-3.14-.21-4.67.05-3.68-.05-7.36,0-11,0-4,0-8.09,0-12.14,0-1-.52-5-.56-5.17-.17-1.05.08-2.09,0-3.13-.18-1.65-.32-3.32-.37-4.94-.09-2.71-.59-5.39-.53-8.1.05-1.75-.52-2.27-2.24-2.32a2.54,2.54,0,0,1-.74-.22,21.77,21.77,0,0,0-7.17-1.46,93,93,0,0,1-10.29-.08A32.33,32.33,0,0,0,464,13a23.15,23.15,0,0,1-5,.31c-1.66-.13-3.3,0-4.94,0-1.29,0-2.6.11-3.9.09a21,21,0,0,0-2.74.15,28.79,28.79,0,0,1-5.08.42,81.14,81.14,0,0,0-10.46-.21c-.58,0-3.32.26-3.73.25a66.76,66.76,0,0,0-8.83.39c-.84.1-1.69.19-2.53.26-2.15.15-4.32.17-6.45.46a88.07,88.07,0,0,1-11.93.63c-1.95,0-3.91-.08-5.87,0a22.89,22.89,0,0,1-4.78-.23,60.26,60.26,0,0,0-9.05-.94c-3.68-.2-7.36-.13-11-.42-4.07-.33-8.16-.48-12.24-.74-2.25-.14-4.48.16-6.75,0a47.44,47.44,0,0,0-7.15.24c-3.25.26-6.49.62-9.76.69-2,0-4.05-.08-6.08-.12-.5,0-3.76-.18-4.41-.16-3.83.13-7.64-.57-11.46-.52-1.55,0-3.1,0-4.65,0-2.38-.06-4.74.45-7.13.48-2.19,0-4.37.21-6.54.45-2,.22-3.92-.09-5.87,0-1,0-4.72,0-5.22,0l-3.61-.1c-4-.08-8.05-.21-12.08-.28a43.43,43.43,0,0,0-4.72.3,12,12,0,0,1-2.32.18,33.49,33.49,0,0,1-7.62-.12,42.43,42.43,0,0,0-7.8-.25c-.38,0-3.08-.34-3.57-.34-3.49,0-7-.76-10.47-.67s-7.05,0-10.59-.28-6.78-.81-10.17-1a44.5,44.5,0,0,0-7-.27c-4,.37-8,.69-11.92,1-1,.07-1.93.15-2.9.14-5,0-10-.32-14.94,0-4.72.27-9.44.39-14.16.58-.62,0-3.59.22-4.21.29a57.79,57.79,0,0,1-10.44,0c-2.43-.17-4.86.1-7.29-.25a36.91,36.91,0,0,0-4.53.21,27,27,0,0,1-8.35.63,25.07,25.07,0,0,0-3-.22c-4.44.06-8.9.11-13.39,0-4-.13-8.1.5-12-.52-1.75-.46-3.32.85-5.08.46a27.73,27.73,0,0,0-3.45-.25,9.6,9.6,0,0,0-3.54-.08c-4.18,1.22-8.34.32-12.46.62a1.46,1.46,0,0,1-.54-.12,12,12,0,0,0-5.15-.62,14.5,14.5,0,0,1-4.1.18,12.81,12.81,0,0,0-4.28,0,28,28,0,0,1-7.7.18c-2.24-.32-12.62.06-13.63,0a26.22,26.22,0,0,0-8.08.85c-1.8.49-3.49,1.62-5.43,1.53-.49,0-4.33.56-6.08.48-.86,0-.86,1.36-.81,2.15.17,2.65.39,5.31.36,8,0,2.37.19,4.73,0,7.14-.27,4.62-.36,9.25-.53,13.81-.19,4.9-.41,9.72-.46,14.37,0,3.09-.46,6.09-.23,9a15.09,15.09,0,0,1,.17,2.83,29.38,29.38,0,0,0,0,7.08,57.88,57.88,0,0,1,0,10.66c-.15,3.62-.12,6.91-.18,10.46-.05,3.37.11,7,.11,11.27,0,1.24,0,2.54,0,3.91,0,2.6.24,5.59.23,8.36a37.61,37.61,0,0,0,0,5.81,26.69,26.69,0,0,1,.42,3.83c0,2.52-.29,4.94-.16,7.3,0,1,0,2,0,3,0,3.94.23,7.78.22,11.78a30.82,30.82,0,0,0,.12,5.5,27.72,27.72,0,0,1,.36,5.19c-.06,4.17.68,8.82.94,13.49.19,3.49.35,6.85.45,10.12.08,2.64-.2,5.25-.12,7.81s.14,5.18.26,7.74c.21,4.39-.23,8.81-.19,13.31a13.62,13.62,0,0,0,1.47,6.23,4.42,4.42,0,0,0,3.35,2.52c1.67.3,3.38.36,5,.66a31.84,31.84,0,0,0,5.61.66,22,22,0,0,1,3.73.29,45.37,45.37,0,0,0,10.94.89,29.78,29.78,0,0,1,5.74-.07c.93.12,5.47.34,6.48.26a64.61,64.61,0,0,1,9.52-.36c3,.23,5.93,0,8.89,0,3.17-.07,6.33.1,9.49-.15a11.64,11.64,0,0,1,1.67,0,45,45,0,0,0,6.66.19,11.87,11.87,0,0,1,3.26.1,38.3,38.3,0,0,0,6.44.29c3.72,0,7.42-.32,11.11-.2.62,0,5.9.26,7.94.46,2.36.22,4.73-.22,7.08.08a86.6,86.6,0,0,0,10.93.53c2.75,0,5.51-.14,8.27.09a42.42,42.42,0,0,0,8.8,0,57.7,57.7,0,0,1,10.28-.46c.93.05,1.85.23,2.78.26,3.58.1,7.15-.48,10.79-.41,2.24,0,4.48-.07,6.74-.07,3.74,0,7.52,0,11.35.09.46,0,2.76,0,3.09,0,4.06.35,8.1-.05,12.2.17,2.77.14,5.55.07,8.33,0,3-.08,6.11-.08,9.15-.32,2.66-.21,5.38,0,8.06-.11a52.72,52.72,0,0,1,5.48,0,39.67,39.67,0,0,0,5.11-.17c3.1-.18,6.27,0,9.4.07a23.54,23.54,0,0,1,4,0,33.65,33.65,0,0,0,7.58.53c3.23-.09,6.46.12,9.68.16,2.67,0,5.33,0,8,0,2.17,0,4.3-.34,6.5.3a3.74,3.74,0,0,0,1.06,0c3.12,0,6.23-.25,9.35,0,3.8.26,7.57.19,11.36.21,1.07,0,2.17.42,3.17.16a18.77,18.77,0,0,1,3.74-.15,21.21,21.21,0,0,0,3.06.08,24.91,24.91,0,0,1,6.33-.29c1.69,0,3.41,0,5.12.24a83.56,83.56,0,0,0,9.36.31c1,0,1.94.27,2.9.24,2.81-.09,5.61,0,8.41,0a20.72,20.72,0,0,0,4.54-.12c1.79-.4,3.47,0,5.19-.1,1.25-.08,2.55.16,3.74.06,1.4-.12,2.81,0,4.22-.22,2.19-.34,4.4,0,6.6,0a57.23,57.23,0,0,0,8.58-.13c2.68-.38,5.37.07,8.08,0,4.36-.16,8.88.13,13.45-.59,2.19-.34,4.41,0,6.64,0,2.58,0,5.17-.24,7.81-.07a36.24,36.24,0,0,0,6.75,0,44.71,44.71,0,0,1,5.8-.26c1.87,0,3.75,0,5.62,0,1.2,0,2.39-.17,3.58-.11,2.44.13,4.78-.38,7.21-.27,2,.08,3.94-.26,5.91-.28,2.26,0,4.51-.1,6.75-.13C475,231.59,479.9,231.2,484.7,230.94Z" transform="translate(-8.13 -7.52)"/></g></g></g></svg>