<svg xmlns="http://www.w3.org/2000/svg" viewBox="0 0 291.54 230.44"><title>box_mobile</title><g id="Layer_2" data-name="Layer 2"><g id="Layer_1-2" data-name="Layer 1"><g id="PygXQP.tif"><path d="M88.14,236.65c-2.24-.21-4.52.43-7.24-.5a14.36,14.36,0,0,0-4.17-.31c-2.39-.07-5.13-.62-8.42-.43a33,33,0,0,1-3.54.24c-2-.11-4.41-.12-6.65-.24-3.33-.18-6.26,0-8.85-.17-2.39-.12-4.51,0-6.41,0-1.41,0-2.7.12-3.91.08s-2.05-.16-3-.14c-1.37,0-2.65.3-3.89.33-1.57,0-3.09-.27-4.68-.23a6.57,6.57,0,0,1-3.19-.35,5.34,5.34,0,0,0-1.88-.62,17.53,17.53,0,0,1-4.31-.66c-1.67-.51-3.63-.51-5.42-2.14-.13-.12-1.09-2.11-1.38-2.64a13.55,13.55,0,0,1-1.71-7.38c.14-3.53.15-7,.19-10.44,0-3.13,0-6.25,0-9.4,0-6.26.24-12.67-.14-19.56-.21-4-.58-8.07-.67-11.73-.09-3.46-.38-6.67-.38-9.77,0-2.42-.07-4.76-.06-7.07s-.18-4.74-.12-7.12c.07-3.32.15-6.7.1-10.29,0-2.25-.33-4.57-.3-7C8.16,123.44,8,117,8,112.1c0-4.06-.19-7.48,0-10.72.16-2.84,0-5.52.15-8.38A89.24,89.24,0,0,0,8.4,81.61c-.42-6.42-.2-15,0-23.71.07-2.64.25-5.31.2-8,0-1.74,0-3.52.11-5.28.13-2.36.33-4.74.38-7.12A6.16,6.16,0,0,1,9,36.29c.54-2.08.19-4.15.19-6.16,0-3.47,0-6.93-.21-10.32-.09-1.58.21-3.22-.3-4.68-.39-1.11.1-2.08.23-3.09.06-.44.41-.61.85-.7,1.25-.26,9.21.2,10.2,0,1.21-.29,2.3-.86,3.35-1.11a19.85,19.85,0,0,1,4.23-.65c.88,0,1.69.09,2.45,0,1.2-.07,2.3-.55,3.32-.51.18,0,1.41.25,1.86.27,1.89.07,3.73-.19,6,.4,1.68.44,3.6,0,5.93-.71a1.53,1.53,0,0,1,1.09.07,5,5,0,0,0,2.54.25,14.35,14.35,0,0,1,4.43-.14,47.53,47.53,0,0,0,9.3.23c3.47-.12,6.46.33,9.09.1a15.59,15.59,0,0,1,4.69.22,5.76,5.76,0,0,0,3.7-.39,8.44,8.44,0,0,1,4.75-.27,26,26,0,0,0,3.48.35c1.66-.07,3.25-.27,5-.44a29.65,29.65,0,0,0,3.42-.39,31.07,31.07,0,0,1,6.2-.24c2,0,4.31.07,7-.1,3.56-.23,8.26-1.1,12.54-.65,2.31.24,4.43.33,6.34.69,2.41.46,4.53.64,6.45.84,1.66.17,3.15.17,4.53.18a36.52,36.52,0,0,1,5,.72c1.38.18,2.69.15,4,.3,1,.11,2,.65,3,.22a5.32,5.32,0,0,1,1.68-.27,24.35,24.35,0,0,1,3.46.14c1.84.17,3.88,0,6.24.24,1.56.13,3.27,0,5.13.07,2.9.12,6.16-.48,10-.64,3.19-.14,6-.44,8.52-.36,2,.06,3.73.35,5.35.44,3.07.16,5.61.14,7.85.24a9.52,9.52,0,0,0,2.34-.08,25.59,25.59,0,0,1,6.29-.72c2,.06,4,.33,6.3.53a38.46,38.46,0,0,0,4.38.55,74.87,74.87,0,0,1,10.66,1.2,31.9,31.9,0,0,0,5,.07c2.18,0,4.58,0,6.67,0,2.82-.07,5.27-.66,7.5-.91a7,7,0,0,0,2-.18,12.64,12.64,0,0,1,3-.49c1.51-.2,2.9-.08,4.18-.19A19.13,19.13,0,0,1,264,10a13.41,13.41,0,0,0,2.52.07c1.41-.1,2.76-.34,4.16-.42a23.22,23.22,0,0,0,4.72-.55A7.54,7.54,0,0,1,278.34,9a18.32,18.32,0,0,0,4.49.12,14,14,0,0,1,5.13.24,28,28,0,0,0,4.54.94A3.44,3.44,0,0,1,296,13.15c.11.58.8.9.82,1.5.05,1.87.53,3.68.53,5.56a31.82,31.82,0,0,0,.22,4.78c.39,2.53,1,5.06.19,7.63a1.26,1.26,0,0,0,0,.58c.63,3.7,0,7.42.25,11.13S297.8,52,297.9,55.8c.09,3.47.1,6.93.16,10.4a4.77,4.77,0,0,0,.35,2V78.49a21,21,0,0,0-.34,4.44c.06,3.43.24,6.31,0,8.91a39.42,39.42,0,0,0,0,4.22c0,1.53-.29,3-.13,4.54a5.26,5.26,0,0,1-.1,1.42,13.82,13.82,0,0,0-.37,3.94c.2,2-.29,4-.23,6.41s-.08,4.84-.18,7.75c-.07,2.26.08,4.69,0,6.92a16.8,16.8,0,0,0-.2,2.34c.43,5.2,0,9.91.55,14.44a64.36,64.36,0,0,1,.07,6.8c0,.66.15,1.32.11,2a64.72,64.72,0,0,0-.34,9.08,9.43,9.43,0,0,1,.13,1.85c-.14,1.29-.18,2.62-.31,4-.22,2.46.38,5,.23,7.73A66.86,66.86,0,0,0,298,186c.43,3.78.42,7.68.62,11.61.26,5.06.95,10.29.53,15.38-.16,1.91.55,4,.14,5.9a14.09,14.09,0,0,0-.23,3.14,8.16,8.16,0,0,1-.2,2.8,36.65,36.65,0,0,0-1.31,4.78c-.31,1.24-.93,2.21-1.23,3.45a2.22,2.22,0,0,1-1.93,1.77,36.6,36.6,0,0,0-3.65.77c-.58.15-4.1.53-4.44.51-2.32-.14-4.4,0-6.39,0-.54,0-1,.34-1.53.26a12.55,12.55,0,0,0-4.59.14c-1.71.35-9.55.74-11.18.74-.87,0-1.76.13-2.66.06-2-.16-4.2,0-6.58-.13a16.44,16.44,0,0,0-2.88.06c-2.06.26-14,.85-17.3.47-3-.34-5.6.3-7.91,0-3-.35-5.47.24-7.65.1-1.58-.1-3,.16-4.35.12-2.14-.07-4.07-.29-6.1-.48-1-.1-2.09-.2-3.22-.23-.54,0-1.07-.39-1.64-.36-1.16.07-2.39.16-3.75.2-1.15,0-2.39-.06-3.72.08a31.39,31.39,0,0,1-5,.07c-2.36-.13-5-.28-8-.19-3.77.1-7.63-.63-10.73-.53l-3.35.06c-1.69,0-3.26-.05-4.69-.13-1.26-.08-2.45-.22-3.54-.22-2.28,0-4.28-.4-6.17-.47-.92,0-1.83-.19-2.72-.16s-2,.27-3,.22a38.54,38.54,0,0,0-4.84.17,96.67,96.67,0,0,1-11.5.37c-3-.09-6.4.11-10.44-.12-3.64-.22-7.6,0-10.7-.16a67.4,67.4,0,0,0-8.74.15,14.37,14.37,0,0,1-2.14.13c-1.25-.11-2.41-.2-3.49-.21a10.6,10.6,0,0,0-3.47.53A21,21,0,0,1,88.14,236.65Zm200.41-5.71v0a4.52,4.52,0,0,0,1.22,0c1.15-.36,2.58-.22,3.2-2.06.11-.33.09-.73.22-1a21.49,21.49,0,0,0,1.77-9.3A75.88,75.88,0,0,1,295,210a14.62,14.62,0,0,0,.17-2.74c-.39-4.35-.68-8.66-.89-12.88-.12-2.22-.19-4.42-.36-6.59s-.5-4.15-.64-6.17c-.22-3.13,0-6.17-.23-9a16,16,0,0,1-.24-3.34,32.83,32.83,0,0,0,.32-5.45,64.17,64.17,0,0,1,0-6.66c.08-.92,0-1.86.12-2.77s-.35-1.69-.05-2.67a9,9,0,0,0,.1-3.17c-.26-3.44-.51-6.91-.46-10.58,0-.59-.26-1.16,0-1.77A4,4,0,0,0,293,134c-.13-.86-.13-1.75-.2-2.65a58.86,58.86,0,0,1,.14-6.59c.1-2.87-.09-5.87.16-8.38.27-2.79,0-5.24.29-7.44s-.06-4.38.23-6.35c.33-2.29.21-4.47.34-6.74.05-.86-.22-1.72-.12-2.64a44,44,0,0,0,.31-4.65c0-2.32-.38-4.87-.14-7.87A138.66,138.66,0,0,0,293.9,66c-.06-1.56-.21-3.14-.19-4.67.05-3.68,0-7.36,0-11,0-4,.05-8.09,0-12.14,0-1-.46-5-.49-5.17-.15-1.05.07-2.09,0-3.13-.17-1.65-.28-3.32-.33-4.94-.07-2.71-.5-5.39-.45-8.1,0-1.75-.47-2.27-1.86-2.32a1.83,1.83,0,0,1-.59-.22,13.36,13.36,0,0,0-5.18-1.46,31.45,31.45,0,0,1-6-.08,7.48,7.48,0,0,0-3.58.27,4.66,4.66,0,0,1-2.17.31,11.33,11.33,0,0,0-2,0c-.52,0-1,.11-1.55.09a3.36,3.36,0,0,0-1.08.15,4.83,4.83,0,0,1-2,.42,14.8,14.8,0,0,0-4.5-.21c-.27,0-1.6.26-1.8.25a21.87,21.87,0,0,0-4.87.39c-.51.1-1,.19-1.59.26-1.39.15-2.9.17-4.52.46a62.45,62.45,0,0,1-10.53.63c-1.92,0-3.7-.08-5.36,0a14.29,14.29,0,0,1-3.82-.23,32.71,32.71,0,0,0-6.1-.94c-2.22-.2-4.15-.13-5.9-.42-1.94-.33-3.67-.48-5.32-.74-.91-.14-1.79.16-2.69,0a7.9,7.9,0,0,0-2.88.24,28.36,28.36,0,0,1-4.28.69c-1,0-2-.08-3.06-.12-.27,0-2.1-.18-2.48-.16-2.27.13-4.83-.57-7.82-.52-1.22,0-2.5,0-3.87,0-2.09-.06-4.48.45-6.76.48a47.46,47.46,0,0,0-5.76.45,40.49,40.49,0,0,1-4.43,0c-.68,0-3.13,0-3.44,0l-2.14-.1c-2.28-.08-4.25-.21-6.05-.28a8.23,8.23,0,0,0-2,.3c-.32.21-.65.12-1,.18a5.45,5.45,0,0,1-3.05-.12,6.92,6.92,0,0,0-3.13-.25c-.16,0-1.29-.34-1.5-.34-1.5,0-3.1-.76-4.9-.67a40,40,0,0,1-6.16-.28c-2.24-.25-4.73-.81-7.6-1a36.45,36.45,0,0,0-6.46-.27c-4,.37-7.34.69-10.25,1a18.43,18.43,0,0,1-2.05.14,75.9,75.9,0,0,0-8.52,0c-2.24.27-4.15.39-6,.58-.24,0-1.37.22-1.61.29a8.89,8.89,0,0,1-4.07,0,19.69,19.69,0,0,1-3.15-.25,8.87,8.87,0,0,0-2.19.21,8.4,8.4,0,0,1-4.7.63,10.11,10.11,0,0,0-1.94-.22c-3,.06-6.49.11-10.73,0-3.82-.13-7.8.5-10.82-.52-1.37-.46-2.51.85-3.69.46a12.38,12.38,0,0,0-2.22-.25c-.73-.1-1.43-.42-2.07-.08-2.32,1.22-4.22.32-5.89.62-.07,0-.15-.06-.21-.12a2.11,2.11,0,0,0-2-.62c-.51.12-1,.45-1.48.18a1.65,1.65,0,0,0-1.5,0,3.77,3.77,0,0,1-2.78.18c-.83-.32-5.38.06-5.9,0a9.66,9.66,0,0,0-4.63.85C21,15,19.85,16.13,18.41,16a48.13,48.13,0,0,1-4.9.48c-.75,0-.76,1.36-.72,2.15.13,2.65.3,5.31.26,8,0,2.37.12,4.73,0,7.14-.28,4.62-.39,9.25-.58,13.81C12.26,52.56,12,57.38,12,62c0,3.09-.42,6.09-.23,9a18.09,18.09,0,0,1,.15,2.83,35,35,0,0,0,0,7.08,66,66,0,0,1-.15,10.66c-.18,3.62-.23,6.91-.34,10.46-.1,3.37,0,7-.06,11.27,0,1.24,0,2.54,0,3.91,0,2.6.18,5.59.17,8.36a49.13,49.13,0,0,0,0,5.81,31.36,31.36,0,0,1,.31,3.83c0,2.52-.25,4.94-.17,7.3,0,1,0,2,0,3,0,3.94.12,7.78.08,11.78a40.51,40.51,0,0,0,.05,5.5,36.84,36.84,0,0,1,.25,5.19c-.06,4.17.49,8.82.67,13.49.13,3.49.23,6.85.28,10.12,0,2.64-.19,5.25-.16,7.81s.05,5.18.1,7.74c.09,4.39-.27,8.81-.29,13.31a19,19,0,0,0,.95,6.23,3.47,3.47,0,0,0,2.15,2.52c1,.3,2,.36,2.94.66a9.92,9.92,0,0,0,2.93.66,5,5,0,0,1,1.78.29c1.66.6,3.18,1.17,4.7.89a4.94,4.94,0,0,1,2.32-.07,11.45,11.45,0,0,0,2.63.26,12.2,12.2,0,0,1,4.17-.36,23.43,23.43,0,0,0,4.51,0c1.76-.07,3.7.1,5.89-.15a5.77,5.77,0,0,1,1.18,0,26.74,26.74,0,0,0,5.21.19,9.35,9.35,0,0,1,2.88.1,35.45,35.45,0,0,0,6.2.29c3.44,0,6.4-.32,9-.2.43,0,3.86.26,5,.46,1.35.22,2.6-.22,3.74.08a18.61,18.61,0,0,0,4.86.53,16.36,16.36,0,0,1,3.29.09,6.88,6.88,0,0,0,3.52,0,11.3,11.3,0,0,1,4.59-.46c.45.05.91.23,1.39.26,1.83.1,3.87-.48,6.24-.41,1.45,0,3-.07,4.74-.07,2.84,0,6.08,0,9.81.09.45,0,2.72,0,3,0,3.86.35,7.13-.05,10,.17a44.86,44.86,0,0,0,5.32,0,43.44,43.44,0,0,0,4.82-.32c1.28-.21,2.49,0,3.64-.11a9.23,9.23,0,0,1,2.29,0,6.64,6.64,0,0,0,2.08-.17,22.89,22.89,0,0,1,3.87.07,4.6,4.6,0,0,1,1.77,0,7.6,7.6,0,0,0,3.61.53c1.64-.09,3.45.12,5.47.16,1.68,0,3.51,0,5.52,0,1.65,0,3.4-.34,5.37.3a3.07,3.07,0,0,0,1,0c2.87,0,6.1-.25,8.79,0,3.27.26,6.05.19,8.5.21.69,0,1.37.42,2,.16a6.27,6.27,0,0,1,2.13-.15c.57-.06,1.14.29,1.62.08a5.93,5.93,0,0,1,3-.29,11.52,11.52,0,0,1,2.22.24,13.7,13.7,0,0,0,3.73.31c.38,0,.75.27,1.13.24,1.09-.09,2.2,0,3.37,0a3.92,3.92,0,0,0,2-.12c.8-.4,1.58,0,2.43-.1.61-.08,1.27.16,1.91.06a18.51,18.51,0,0,0,2.36-.22c1.29-.34,2.69,0,4.21,0a34.85,34.85,0,0,0,6.63-.13c2.3-.38,5,.07,7.59,0,4.16-.16,7.8.13,11-.59a20.6,20.6,0,0,1,4.37,0,32.82,32.82,0,0,1,4.52-.07,9.79,9.79,0,0,0,3.5,0,10.75,10.75,0,0,1,2.8-.26c.89,0,1.76,0,2.61,0a11.16,11.16,0,0,1,1.63-.11c1.11.13,2.15-.38,3.27-.27a26,26,0,0,0,2.74-.28c1.08,0,2.17-.1,3.32-.13C282.77,231.59,285.46,231.2,288.55,230.94Z" transform="translate(-7.88 -7.52)"/></g></g></g></svg>