<svg xmlns="http://www.w3.org/2000/svg" viewBox="0 0 468.14 30.25"><title>founder</title><g id="Layer_2" data-name="Layer 2"><g id="Layer_1-2" data-name="Layer 1"><path d="M419.09,6.38c-.88-.74-2.58-1-3.18-.43-.84.84-1.91,1.53-2.17,2.83a1,1,0,0,1-.6.73c-.9.33-1,1.11-1.16,1.89,0,.2.12.47-.3.59a4.36,4.36,0,0,0-3-2.14c-1.23-.16-2.16-1-3.6-.87a5.48,5.48,0,0,0-5,4.66c-.14.66-.4,1-1,1.12-1.35.27-2.69.53-4,.78-.29.06-.67.12-.74-.25a7.62,7.62,0,0,1-.31-1.81c.1-1.84.48-3.7-.29-5.52-.21-.49-.34-.85-1-.83a1.36,1.36,0,0,0-1.34.8,3.49,3.49,0,0,0-.31,1.63c.08,1.92-.23,3.83-.29,6-.91-1.28-1.36-1.36-2.45-.69a14.09,14.09,0,0,1-5.82,2.1,3,3,0,0,1-3-1c-.56-.78-.59-1,.33-1.3A29.27,29.27,0,0,1,385,13.29a2.57,2.57,0,0,0,1.51-.79c.59-.57.3-1.31,0-1.91-.17-.3-.37-.86-.95-.64-1.64.63-3.41.52-5.09.92-.27.06-.64.19-.79-.15s.2-.53.41-.69c1.41-1.12,3.17-1.32,4.81-1.75a2.21,2.21,0,0,0,1.67-1.42c.25-.62-.38-1.59-.88-1.43-1.67.54-3.45,0-5.11.59-1,.37-2.28.33-2.86,1.46a17.5,17.5,0,0,0-1.58,3.58,8.71,8.71,0,0,0,0,5.66,5.59,5.59,0,0,0,6.74,3.46,20.07,20.07,0,0,0,4.88-1.92,14.07,14.07,0,0,0,2.2-1.14,1.22,1.22,0,0,1,1-.47c.38.05.33.52.43.8a2.74,2.74,0,0,0,3.7,1.69c1.12-.44,2.23-.89,3.35-1.35s2.29-.78,3.14.58a2.15,2.15,0,0,0,1.35.75A7.27,7.27,0,0,0,408.36,18a7.37,7.37,0,0,0,3.38-3c.08-.16.19-.39.44-.32s.24.28.24.48c0,.43,0,.85,0,1.28-.14,1.83.74,2.77,2.47,2.19a2.23,2.23,0,0,1,.57-.12.54.54,0,0,0,.51-.64,13.14,13.14,0,0,0,0-2.35c-.22-1,.53-1.15,1.38-1.1a3.75,3.75,0,0,0,3.24-1.29,3.18,3.18,0,0,0,.61-3.33A7.12,7.12,0,0,0,419.09,6.38Zm-10.92,8a19.36,19.36,0,0,1-3.31,1.15c-.47-.1-1,0-1.29-.54a1.73,1.73,0,0,1-.09-1.76c.23-.32.59-1.08,1.33-1.33a3.68,3.68,0,0,1,1.85-.08c.37.08.89.59,1.29.65.58.09,1.29.25,1.36.76S408.74,14.23,408.17,14.4Zm8.12-2.19c-.58,0-.59-.6-.58-1.34s.53-2.11,1.11-2.1,1.07,1.39,1.07,2.13S416.87,12.22,416.29,12.21Z"/><path d="M456.11,15.56a.92.92,0,0,0-1.14-.83,7.9,7.9,0,0,1-4.41.25c-1.67-.3-2.13-.43-3.81-.86-.52-.13-.74-.3-.31-.75,1.72-1.81,1.77-4,1.27-6.23a2.53,2.53,0,0,0-4.07-1.37,25.68,25.68,0,0,0-3.85,3.59c-.2.26-.48.6-.9.3-.9-.64-1.53,0-1.86.61a6,6,0,0,0-.94,2.32c0,.57-.16,1.33-1.13,1a.53.53,0,0,0-.36.08c-2.12,1.36-4.56,1.42-6.93,1.76a1.46,1.46,0,0,1-1.2-.36,1.78,1.78,0,0,1-.63-2c.26-.61,1-.58,1.66-.44a2,2,0,0,0,.67.08l4.79-.86a.58.58,0,0,0,.48-.43c.16-.43.39-.93,0-1.29s-.88-1.14-1.72-.89a18.84,18.84,0,0,1-4.94.29c-.36-.32.42-1.28.61-1.29a68,68,0,0,0,7.06-.73,1.05,1.05,0,0,0,.89-.93c.06-.49-.33-.72-.71-1a1.8,1.8,0,0,0-.94-.18c-2.68,0-5.36.06-8,.11-1.25,0-1.73.49-1.76,1.73a3.35,3.35,0,0,1-.46,1.63,6.3,6.3,0,0,0-1.11,2.89,9.06,9.06,0,0,0,1,4.54c.72,1.25,1.64,2.32,3.25,2.37a7.68,7.68,0,0,0,3.6-.81c1.28-.62,2.59-1.19,3.89-1.8.58-.27.95-.34,1,.54a1.52,1.52,0,0,0,1.26,1.52,1.68,1.68,0,0,0,2-.9c.26-.49.57-1,.82-1.44s.35-.44.65-.16A6.37,6.37,0,0,0,443,17.24a34.09,34.09,0,0,0,5.13.64c1.06,0,2.13-.21,3.2-.27,2.43-.15,1.64-.31,4-1A1,1,0,0,0,456.11,15.56Zm-15-3c.59-1.71,2.1-3.76,3.36-3.39A3.18,3.18,0,0,1,441.08,12.52Z"/><path d="M250,17.79a12.53,12.53,0,0,0-2.19.17,10.07,10.07,0,0,1-3.24-.11,25.2,25.2,0,0,1-2.49-.85A1.82,1.82,0,0,1,241,14.17a28.38,28.38,0,0,0,2.87-5.95A3.51,3.51,0,0,0,243.11,5a2.11,2.11,0,0,0-2.56-.67,7.67,7.67,0,0,0-3.35,2.2c-.83.83-1.95,1.38-2.56,2.38s-.79,1.11-1.58.19a1.68,1.68,0,0,0-2.18-.16c-.86.6-.59,1.47-.21,2.11a8.25,8.25,0,0,1,1,5.18v.3a2.16,2.16,0,0,0,1.86,1.92c1.37.07,1.71-.18,1.83-1.63a13,13,0,0,1,2.73-6.59,1.49,1.49,0,0,1,1.07-.61A14,14,0,0,1,238,12a6.27,6.27,0,0,0-1.44,2.52,3.89,3.89,0,0,0,1,3,7.18,7.18,0,0,0,5.87,3.53,22,22,0,0,0,5.7-.93c.94-.34,2.17-.86,1.75-1.62A1.53,1.53,0,0,0,250,17.79Z"/><path d="M320.87,14.43q-1.44-.82-2.85-1.71c-1.22-.76-1.28-1.11-.35-2.21a3.44,3.44,0,0,0,1-2.57c-.17-2.24-1.92-3.86-4.72-3.93a4.36,4.36,0,0,0-3.21,1.87,8.88,8.88,0,0,1-1.6,1.92c-.48.34-1.2.36-1.3,1.11a5.52,5.52,0,0,0-.09,1.85,37,37,0,0,1,.7,4.32,1.81,1.81,0,0,0,1.94,1.76,3,3,0,0,0,1.88-2.27c.25-1.45-1.21-2.64-.8-4,0-.07.39-2.1,1.65-2.51.31-.11,1-.29,1.34.05s-.05.53-.23.74a4,4,0,0,0,.7,5.72,19.08,19.08,0,0,0,2.51,1.7c.16.08.42.13.41.37s-.26.34-.47.43a46,46,0,0,0-4.26,1.88c-1,.62-1.3,1.43-.81,2.3s1.27,1,2.28.47c1.65-.88,3.48-1.34,5.07-2.39A12.68,12.68,0,0,0,322,17.57a1.33,1.33,0,0,0,.2-1.71A3.48,3.48,0,0,0,320.87,14.43Z"/><path d="M109.49,15.25c-1.49-1.07-1.67-1.67-.91-3.32a18.86,18.86,0,0,0,.86-3.77,5.54,5.54,0,0,0-.84-2.88c-.45-.42-.72-1-1.32-1.28-1.09-.45-3.66.46-4.31,1.5-.73,1.19-1.52,2.35-2.17,3.57a1.37,1.37,0,0,1-1.54.86c-.86-.13-1.2.38-1.52,1.07s.15,1.34.1,2a16.82,16.82,0,0,0,.47,5c.12.53-.06,1.4.92,1.33.64-.05,1.26.35,1.92,0,.91-.46,1.19-1.27.76-2.6a11.27,11.27,0,0,1-.29-3.21c.58-2.15,1.5-2.5,2.74-4.36.27-.4.71-.34,1-.35s.13.44.16.68a2,2,0,0,1-.08.68A5.42,5.42,0,0,1,104.05,13a1.9,1.9,0,0,0-.33,2.85,16,16,0,0,0,3.51,2.62c1.71.92,3.66,1.37,5.2,2.66a1,1,0,0,0,1.56-.21,1.12,1.12,0,0,0,.1-1.63A17.8,17.8,0,0,0,109.49,15.25Z"/><path d="M228.78,16a3,3,0,0,1-1,.44,9,9,0,0,1-6,.51c-.29-.09-.61-.17-.69-.47s.31-.43.52-.61c.56-.51,1.3-.36,2-.5A21,21,0,0,0,227.3,14a1.53,1.53,0,0,0,1.1-1.88c-.22-.61-.71-1.29-1.41-1.09-2.12.59-4.32.64-6.45,1.16-.44.11-.88.92-1.34.29-.28-.38-.21-1-.37-1.5-.32-.94.06-1.33,1-1.43a33.2,33.2,0,0,0,5.66-1.14c.45-.12.95-.19,1.1-.82.23-1-.44-1.69-1.7-1.72l-2.82,0c-.61-.12-1.39.14-2.17.09a11.6,11.6,0,0,0-2.42.36c-1.68.25-2.57,1.19-2.31,2.93.19,1.29.34,2.58.51,3.87a11.57,11.57,0,0,0,2.24,5.22,4.44,4.44,0,0,0,1.43,1.29,8.52,8.52,0,0,0,5.81,1.1,10.38,10.38,0,0,0,5.13-2.34c.77-.62.68-1.21.1-2.07S229.47,15.33,228.78,16Z"/><path d="M79.23,8.77C77.08,7,74.36,6.06,72,4.51a2.39,2.39,0,0,0-2.59-.1,3.65,3.65,0,0,0-1.67,2.85,26,26,0,0,0,.76,4.62,25.84,25.84,0,0,1,.95,3.88c.27,1.63,1,2.32,2.61,2,.55-.1.63.06.85.52.4.87,1,1.65,2,1.47a7.74,7.74,0,0,0,3-.57c1.59-.69,3.4-1.17,4.1-3a4.31,4.31,0,0,0,.31-3.53A10.68,10.68,0,0,0,79.23,8.77Zm-.63,6.08a8,8,0,0,1-3.18,1.08,3.8,3.8,0,0,0-2.08.49c-.9-2.06-.54-4.17-.78-6.21-.09-.77.16-1.06.82-.78,1.78.75,3.63,1.39,4.91,3A3.25,3.25,0,0,1,79,13.9.83.83,0,0,1,78.6,14.85Z"/><path d="M292.6,5a1.38,1.38,0,0,0-1.79.25,3.4,3.4,0,0,0-1,2.26c0,.23-.07.5.17.63.83.44.72,1.23.79,2a21.43,21.43,0,0,1-.23,3.4c-.13.81-.25,1.61-.39,2.41,0,.22,0,.53-.23.6s-.38-.29-.52-.47a4.8,4.8,0,0,0-5.52-1.85A16.32,16.32,0,0,0,278.82,17c-.16.14-.32.4-.57.28s-.14-.45-.1-.7c.39-2.46.79-4.92,1.14-7.4.09-.67.1-1.44-.82-1.63S277.35,8,277,8.63c-1.27,2.36-1.51,5-2,7.53a6.91,6.91,0,0,0,.32,4.5,1.68,1.68,0,0,0,2.22,1,8.34,8.34,0,0,0,2.55-1.73,12.84,12.84,0,0,1,3-2.23c.88-.4,1.76-.94,2.86-.46a2.35,2.35,0,0,1,1.15,1.38c1,2,2.44,2.22,4,1.61s2.41-3.24,2.42-4.66c0-3,0-6,0-9A1.5,1.5,0,0,0,292.6,5Z"/><path d="M209.66,8a7.4,7.4,0,0,1-1.88-2.82,1.34,1.34,0,0,0-1.56-1.12c-.88,0-1.9,1.1-1.72,1.8A3.75,3.75,0,0,0,205.61,8a7.4,7.4,0,0,1,2.76,5.12c0,2.25-.27,2.49-1.8,2.2a7.3,7.3,0,0,1-1.7-.42,15.37,15.37,0,0,1-5.4-4.05,1.6,1.6,0,0,0-1.85-.49,1.52,1.52,0,0,0-1.21,1.26c-.1,2.11-.27,4.27.85,6.22.37.63.8,1.43,1.66,1.33s1-.95,1.12-1.66l.06-.29c.08-.4.27-.45.63-.26a16.38,16.38,0,0,0,6.62,2.17c1.26.07,2.54.31,3.58-.76a5.63,5.63,0,0,0,1.27-4.83A10.54,10.54,0,0,0,209.66,8Z"/><path d="M137.42,8.16A5,5,0,0,0,135,7.67c-.24,0-.53,0-.82,0a2.29,2.29,0,0,0-1.73,2.6c1.23,3,1.21,6.21,1.86,9.3.23,1.08,1.42,2.25,2.52,2.06a26.92,26.92,0,0,0,6.24-1.56,2.38,2.38,0,0,0,1.44-1.47,7.94,7.94,0,0,0-1.93-7.39A13.54,13.54,0,0,0,137.42,8.16Zm2.91,9.18c-.15,0-.29.15-.44.2-1.74.63-2.13.37-2.25-1.49-.08-1.37.13-2.82-1.27-4A5.06,5.06,0,0,1,141,16.13C141.1,16.68,141,17.18,140.33,17.34Z"/><path d="M343.62,9a14.61,14.61,0,0,0-4.1-2.86c-1.07-.39-3.07.31-3.41,1.26a11.87,11.87,0,0,0-.56,2.28c-.34,2.31.34,4.53.7,6.78a1.84,1.84,0,0,0,2.51,1.29c1.29-.74,1.47-1.12,1.1-2.52a10.88,10.88,0,0,1-.47-2.39c0-.54-.13-1.23.4-1.48s1,.14,1.42.61a15.1,15.1,0,0,0,1.28,1.48,2.39,2.39,0,0,1,.82,2.81,2.94,2.94,0,0,1-2.95,1.85,1.63,1.63,0,0,0-1.16.44c-.46.37-.91.76-1.39,1.1a1.36,1.36,0,0,0-.61,1.61,1.27,1.27,0,0,0,1.41.83,11.89,11.89,0,0,0,5.22-1.74c1.72-1,3-2.35,3.1-4.32a5.11,5.11,0,0,0-.24-1.84C345.86,12.38,345.26,10.39,343.62,9Z"/><path d="M11.41,27.8a.87.87,0,0,1-.53-.23c-3.35-2.75-6.44-5.63-7.11-10.31a16.35,16.35,0,0,1-.2-5.12A36.21,36.21,0,0,1,4.74,7.53,14.19,14.19,0,0,1,7.09,3.35,3.31,3.31,0,0,0,7.69.94C7.57,0,6.83-.3,6.16.32S4.65,1.58,4,2.28A16.81,16.81,0,0,0,1.08,7.42,32.19,32.19,0,0,0,0,12.63c.28,2-.26,4.26.53,6.4a16.54,16.54,0,0,0,1.93,4.34,19.64,19.64,0,0,0,6.71,6.14,9.57,9.57,0,0,0,1.4.69,1.66,1.66,0,0,0,1.94-1.07C12.58,28.4,12.37,27.76,11.41,27.8Z"/><path d="M306.54,15.31c-.55-.47-.85.21-1.27.34-1.37.42-2.75.81-4.12,1.21a9.57,9.57,0,0,1-1.13.32.78.78,0,0,1-.94-.87c0-.71.49-1,.79-.94a.44.44,0,0,0,.28,0c1.47-1,3.23-.61,4.83-1.32a1.52,1.52,0,0,0,.61-2.64c-.35-.42-.63-.49-1.06-.14a1.63,1.63,0,0,1-1.2.3,16.17,16.17,0,0,0-3.1.34c-.29,0-.75.5-.86-.13-.08-.47-.14-1.09.58-1.27,1-.25,2-.53,3-.77a13.27,13.27,0,0,1,1.71-.34c.61-.06.67-.88.9-1.38s-.32-.62-.67-.79A6.93,6.93,0,0,0,302.66,7a12.62,12.62,0,0,0-3.19,0,3.5,3.5,0,0,1-1.06.1c-1.47-.14-2.21.58-2.15,2.06a9.12,9.12,0,0,1,.06,1.74,24.29,24.29,0,0,0-.5,4.13,8.61,8.61,0,0,0,.65,3.69,3,3,0,0,0,3.14,2c2.66-.15,4.85-1.58,7.15-2.71a1.05,1.05,0,0,0,.56-.87A2,2,0,0,0,306.54,15.31Z"/><path d="M193.86,17.55a1.3,1.3,0,0,0-.37-.88c-1.15-1.28-2.35-1.28-3.46,0a4.16,4.16,0,0,1-3.82.78,1.39,1.39,0,0,1-.75-1.09,7.22,7.22,0,0,1,1.08-5A4.27,4.27,0,0,1,190,9.19a1.29,1.29,0,0,0,.38-.08,2.41,2.41,0,0,0,1.29-1.73c.19-.62-.47-1.11-1-1.34a3.19,3.19,0,0,0-2.84-.11A9.51,9.51,0,0,0,183,11.47c-.21.63-.82,1-.82,1.75s-.1,1.76-.16,2.64c-.26,2.74,2,4.58,4,5.25a6.78,6.78,0,0,0,3.76-.18c.57-.13,1-.08,1.12.56.24,1.47,1.44,2.2,2.42,3.06a.93.93,0,0,0,1.6-.64,2.72,2.72,0,0,0-.06-1.65A11.09,11.09,0,0,1,193.86,17.55Z"/><path d="M61.25,7.44c-.81-1-1.34-1-2.16.11a3,3,0,0,0-.68,1.61c0,.2,0,.38.12.54a10.65,10.65,0,0,1,2.63,5c.27,1,0,1.38-1.12,1.17a6.84,6.84,0,0,1-2.5-1c-1.11-.75-2.42-1.27-3.2-2.45a3.37,3.37,0,0,0-1.61-1.29c-1.25-.51-2.66.2-2.53,1.53s-.24,2.4-.08,3.49c0,.64,0,1.16,0,1.68a2.5,2.5,0,0,0,1.15,2.06c1,.7,1.89.33,2-.87.07-.61,0-1.24.06-1.86,0-.34.1-.7.48-.36A8.39,8.39,0,0,0,56,17.88a14.66,14.66,0,0,0,6,1.73A2.89,2.89,0,0,0,64.91,17a9.49,9.49,0,0,0-1-5.36A27.18,27.18,0,0,0,61.25,7.44Z"/><path d="M170.79,12.54c-1.46-1-3.24-1.17-4.81-1.87-.26-.12-.64-.15-.66-.51a.89.89,0,0,1,.54-.76,3.51,3.51,0,0,1,.91-.32,1.38,1.38,0,0,0,.85-.44,2.59,2.59,0,0,0,.18-2.43,3.16,3.16,0,0,0-2.6-.77c-1.31.27-2.16,1.27-3.25,1.84-2.28,1.2-2,4.47.22,5.74A16.85,16.85,0,0,0,167.86,15c.36.06.94,0,.91.5s-.54.19-.84.26a3.72,3.72,0,0,0-.65.19c-1.23.46-2.45.93-3.58.51-1.45-.08-1.75.13-2.06,1.34-.27,1,0,1.48,1,2a3.36,3.36,0,0,0,2.19.14,27.68,27.68,0,0,0,5.82-1.17A3.42,3.42,0,0,0,173,15.22C172.84,13.89,171.79,13.23,170.79,12.54Z"/><path d="M360.78,15.94c-1.43.37-2.93.07-4.38.32a3.84,3.84,0,0,1-1.45-.19.86.86,0,0,1-.68-.65c-.07-.38.32-.42.55-.58a11.77,11.77,0,0,1,3-1.17,1.93,1.93,0,0,0,1.05-2.18c-.32-.84-1.1-1.13-2.12-.73a5.37,5.37,0,0,1-2,.27c-.44,0-.64-.31-.62-.73s.08-.61.53-.69c.6-.11,1.19-.33,1.79-.46a14.69,14.69,0,0,1,2.46-.59c.68,0,1.6-1.05,1.52-1.58-.14-.85-.84-.67-1.44-.8a12.15,12.15,0,0,0-3.28-.2,9,9,0,0,0-4.37.84,2.29,2.29,0,0,0-1,3.3,2.74,2.74,0,0,1,.23,1.61,14.26,14.26,0,0,0-.1,3.68c.51,2.17,1.77,4.67,5.19,4.36,2.17.22,4.05-.9,6-1.82.45-.22,1-.68.7-1.35A1.15,1.15,0,0,0,360.78,15.94Z"/><path d="M465.84,5.36a13.66,13.66,0,0,0-3.7-4.55,1.59,1.59,0,0,0-2.11.76,1.71,1.71,0,0,0,1,2.14,1.86,1.86,0,0,1,.73.61,17.65,17.65,0,0,1,3.1,6c1.41,4.4.22,8.79-2.82,10.83-.95.63-1.88,1.31-2.81,2a2.18,2.18,0,0,0-.94,1.25,1.92,1.92,0,0,0,.24,1.77,1.37,1.37,0,0,0,1.82,0c1.22-1,2.55-1.75,3.76-2.79a10.83,10.83,0,0,0,4-8.57A21,21,0,0,0,465.84,5.36Z"/><path d="M20.82,12.47c-1.75,1-2.2.84-3.95,1.37-.75.23-.9-.51-1.06-1-.08-.27-.32-.73.26-.88a24.31,24.31,0,0,1,3.59-.86,2.33,2.33,0,0,0,2.05-1.35,1.47,1.47,0,0,0-.18-1.81,1.44,1.44,0,0,0-1.65-.25,21.12,21.12,0,0,1-6.43,1.23,2.1,2.1,0,0,0-1.71,1.3,1.23,1.23,0,0,0,.56,1.6c.17.12.74,4.26.95,4.58a8.35,8.35,0,0,1,.94,2.54c.41,1.51.28,3.19,1.4,4.52.5.59,1,.47,1.59.39a1.22,1.22,0,0,0,1.09-1c.1-.41.19-.83.3-1.24.17-.61.17-1.14-.49-1.51-1-.57-.51-1.72-.91-2.54-.07-.15.17-.32.37-.38A10,10,0,0,0,21,15.76c1.6-1.08,2.64-.94,1.83-2.68A1.56,1.56,0,0,0,20.82,12.47Z"/><path d="M26.74,8.46c-.88.1-1.18.55-1.33,1.37s.27,1.8-.25,2.57a6.42,6.42,0,0,0-1,2.92A5.64,5.64,0,0,0,25,19.05a4.59,4.59,0,0,0,4.17,2c1.94-.08,4.15-1,4.75-3.29a8.1,8.1,0,0,0-.66-5.13A6,6,0,0,0,26.74,8.46ZM31,16.08c-.06.93-1.27,1.59-2.44,1.45-.8-.09-1.21-.79-1.16-1.93,0-.3,0-.67.12-.86a4.62,4.62,0,0,0,.83-3c0-.54.32-.67.77-.28A5.34,5.34,0,0,1,31,16.08Z"/><path d="M95.44,15c-.5-.53-.89,0-1.31.37a4.9,4.9,0,0,1-2.67,1.29,1.4,1.4,0,0,1-1.57-1c-.26-.71-.43-1.42.53-1.78s1.73-1.17,2.68-1.59A3,3,0,0,0,94.85,10a1.17,1.17,0,0,0-.53-1.3,1.44,1.44,0,0,0-1,0c-.93.53-1.25.5-2.08,1a6.84,6.84,0,0,1-1.71.67c-.73.16-1.57.57-2.32-.12a1.42,1.42,0,0,0-1.81,0,1.48,1.48,0,0,0-.64,1.68,22.18,22.18,0,0,0,1.8,5.33,5,5,0,0,0,4.69,3.27c.52.14,1.18-.23,1.86-.41a4.93,4.93,0,0,0,3.28-2.93C96.87,16.06,96,15.53,95.44,15Z"/><path d="M44.67,8.58a1.64,1.64,0,0,0-2,.07,2,2,0,0,0-.66,2,1.47,1.47,0,0,0,1.67,1.07c.67-.06.94.43,1.2,1,.69,1.39-.46,3.79-1.67,4.52A1.1,1.1,0,0,1,41.57,17a9.84,9.84,0,0,1-2.18-4.29,6.14,6.14,0,0,0-.86-2.05,1.35,1.35,0,0,0-2.21-.36c-.94.75-.63,1.79-.4,2.62a15.58,15.58,0,0,0,2.32,5.24,5.45,5.45,0,0,0,4.64,2.65,3,3,0,0,0,2.1-.59c1.38-.84,1.8-2.26,2.39-3.6A6.1,6.1,0,0,0,44.67,8.58Z"/><path d="M372.81,5.89c-1,0-1.59.83-1.45,2.11a9.25,9.25,0,0,1,.26,2.16,13.59,13.59,0,0,1-.26,1.91,7.78,7.78,0,0,1-1.69,3.47c-.35.36-.74.48-.94,0-.58-1.39-1.57-2.63-1.56-4.25a6.6,6.6,0,0,0-.2-1.94A1.69,1.69,0,0,0,365.63,8a1,1,0,0,0-1.22.78,7.46,7.46,0,0,0-.33,2.29,28.61,28.61,0,0,0,.64,3.32,9.38,9.38,0,0,0,2.15,4.19c1.25,1.33,2.47,1.61,3.77.65,2.42-1.8,3.23-4.36,3.58-7.18.19-1.46-.17-2.92.16-4.38A1.7,1.7,0,0,0,372.81,5.89Z"/><path d="M119.45,16.92a1.89,1.89,0,0,1,1.43,1.86,10.12,10.12,0,0,0-.06,1.83,12.67,12.67,0,0,1-.1,4.12c-.38,1.35-.45,2.52-1.92,3.29a2.24,2.24,0,0,1-2.25-.28c-.56-.32-.41-1,0-1.52a4.74,4.74,0,0,0,.85-1.77,11.69,11.69,0,0,0-.27-3.85,4.87,4.87,0,0,1,.23-2.51A2.23,2.23,0,0,1,119.45,16.92Z"/><path d="M179.17,12.46a12.68,12.68,0,0,0-1-4.18c-.33-.79-.41-1.73-1.37-2.25-.6-.32-1.15-.6-1.72-.35A1.62,1.62,0,0,0,174,7.33a1.91,1.91,0,0,0,.14.9,11.4,11.4,0,0,1,1.08,3.55,19.67,19.67,0,0,0,1.42,5.16c.55,1.32,1.37,1.84,2.32,1.48,1.18-.44,1.52-1.44.93-2.93A9.4,9.4,0,0,1,179.17,12.46Z"/><path d="M259.65,17.77c-.23,1.77-.46,3.55-.76,5.3a4.36,4.36,0,0,1-1,2.59,4.78,4.78,0,0,1-1.5,1.67,1.49,1.49,0,0,1-2,0c-.64-.54-.35-1.2-.1-1.8a12.78,12.78,0,0,0,.55-1.25c.55-2,.43-4.06.87-6.07.32-1.51.37-1.72,1.84-2.15A1.55,1.55,0,0,1,259.65,17.77Z"/><path d="M87,9a7.8,7.8,0,0,1,2.31-1c1.09-.44,2.25-.75,3.36-1.21.6-.25.92-.58.78-1.19,0-.63,0-1.22-.68-1.4A4.65,4.65,0,0,0,91.23,4,24,24,0,0,0,86,5.07,3.65,3.65,0,0,0,83.46,7c-.47,1.14.47,1.68,1.18,2.18A2,2,0,0,0,87,9Z"/><path d="M157.48,4c-.86.2-1.72.4-2.58.52a29.05,29.05,0,0,0-7.58,1.89c-.34.15-.73.09-1,.46a1.8,1.8,0,0,0,.41,3c.53.33.93.66.72,1.32-.58,1.82-.16,3.6.13,5.41.46,2.82,3.84,4.73,6.47,4,1.2-.34,2.29-1,3.47-1.32a2.81,2.81,0,0,0,1.79-2c.1-.74.63-1.69-.52-1.83a4.52,4.52,0,0,0-2.5.48,9.68,9.68,0,0,1-3.45,1.14c-.74-.08-1.38-.24-1.65-.95s-.25-1,.63-1.14a28.49,28.49,0,0,0,3.62-.78c.5-.13,1.91-.71,2.17-1.44.44-1.23-.36-2.07-1.63-2s-2.26.28-3.39.41-1.53-.45-2.13-1.11-.29-.91.28-1.1a21.57,21.57,0,0,1,2.72-.77A40.76,40.76,0,0,0,159,6.74a1.26,1.26,0,0,0,.82-.91C160.07,4.7,158.79,3.69,157.48,4Z"/></g></g></svg>