<svg xmlns="http://www.w3.org/2000/svg" width="504" height="504" viewBox="0 0 504 504">
  <path fill="#FFF" fill-rule="evenodd" d="M252.002087,6 C112.84342,6 0,118.818381 0,257.997913 C0,369.339035 72.2062679,463.800174 172.334407,497.121971 C184.928669,499.454705 189.552407,491.655276 189.552407,484.999263 C189.552407,478.990072 189.318717,459.138878 189.210217,438.081673 C119.102993,453.325821 104.309534,408.348698 104.309534,408.348698 C92.8461685,379.220816 76.3292403,371.475637 76.3292403,371.475637 C53.4651045,355.835049 78.0527096,356.156373 78.0527096,356.156373 C103.358079,357.929919 116.682625,382.125258 116.682625,382.125258 C139.158667,420.650847 175.635289,409.512979 190.015616,403.073964 C192.277408,386.790727 198.80823,375.665378 206.015086,369.376593 C150.041979,363.004347 91.2019872,341.396299 91.2019872,244.836117 C91.2019872,217.323204 101.04621,194.842989 117.166698,177.195165 C114.550197,170.843784 105.924504,145.21709 119.607932,110.505668 C119.607932,110.505668 140.769464,103.732809 188.92645,136.336841 C209.028027,130.753302 230.585999,127.953186 252.002087,127.857206 C273.418174,127.953186 294.992838,130.753302 315.131973,136.336841 C363.230536,103.732809 384.362857,110.505668 384.362857,110.505668 C398.079669,145.21709 389.449803,170.843784 386.833302,177.195165 C402.991348,194.842989 412.768801,217.323204 412.768801,244.836117 C412.768801,341.625817 353.816137,362.937578 297.701147,369.176286 C306.739971,376.99658 314.793956,392.332536 314.793956,415.843494 C314.793956,449.557557 314.501842,476.694895 314.501842,484.999263 C314.501842,491.705353 319.037947,499.563204 331.81165,497.088586 C431.885539,463.729232 504,369.301478 504,257.997913 C504,118.818381 391.173273,6 252.002087,6"/>
</svg>
