<svg xmlns="http://www.w3.org/2000/svg" viewBox="0 0 34.11 35"><title>instagram</title><g id="Layer_2" data-name="Layer 2"><g id="Layer_1-2" data-name="Layer 1"><g id="GfZnJZ.tif"><path d="M.11,19c-.26-3.33.51-7.12,1.22-10.92A7.57,7.57,0,0,1,7.78,1.52C14,.31,20.16-.66,26.49.57c.49.09,1,.21,1.44.32A6.79,6.79,0,0,1,33.55,6.5a26.32,26.32,0,0,1,.51,7c-.18,2.54-.18,5.1-.48,7.64-.24,2.08.15,4.18,0,6.27a10.35,10.35,0,0,1-.67,3.06,5.8,5.8,0,0,1-5.41,4,71.88,71.88,0,0,1-11.27.42c-2.59-.19-5.2.28-7.8-.17A21.08,21.08,0,0,1,5.3,34c-2.89-1-4.65-2.7-5-5.71A55.19,55.19,0,0,1,.11,19Zm4.31-.19a37.43,37.43,0,0,0,.66,8c.66,2.67,2.48,4.05,5.39,4.1,1.55,0,3.1,0,4.64-.08,3.16-.1,6.34,0,9.49-.25S29,29,29.31,26c.4-4.4.2-8.82.33-13.23A14.76,14.76,0,0,0,29,7.63a5.27,5.27,0,0,0-3.87-3.7A15.64,15.64,0,0,0,20,3.34c-2,.13-3.89.56-5.84.81A18.08,18.08,0,0,0,7.9,6,4.64,4.64,0,0,0,5.09,9.74C4.83,12.84,4.83,16,4.42,18.8Z"/><path d="M15.43,25.68a4.21,4.21,0,0,1-3.9-2.7,9.06,9.06,0,0,1-1.12-4.56A6.77,6.77,0,0,1,12.49,14c1-.72,1.59-1.15,2.64-1.82,2.37-1.52,4.73-1.32,7.27.57a6,6,0,0,1,2.15,6.56A9.49,9.49,0,0,1,15.43,25.68ZM18,15.92c-1.65-.05-3.35,1.34-3.39,2.76a2.34,2.34,0,0,0,2.06,2.44A3.49,3.49,0,0,0,19.85,18,1.78,1.78,0,0,0,18,15.92Z"/><path d="M23.41,10.45a2.07,2.07,0,0,1-2.28-2,2.29,2.29,0,0,1,2.45-2.18A2.41,2.41,0,0,1,26,8.4,2.32,2.32,0,0,1,23.41,10.45Z"/></g></g></g></svg>