<svg xmlns="http://www.w3.org/2000/svg" viewBox="0 0 211.06 21.7"><title>message</title><g id="Layer_2" data-name="Layer 2"><g id="Layer_1-2" data-name="Layer 1"><path d="M112.9,5.72c.11,1.13.14,2.29.35,3.4.26,1.42.33,2.86.54,4.28a1.2,1.2,0,0,0,.32.69c1,1,.57,2.07,0,3.06a1.75,1.75,0,0,1-3-.08,11.19,11.19,0,0,1-1.19-4.1c-.22-1.22-.43-2.43-.76-3.63,0-.15,0-.36-.21-.4s-.34.16-.44.32c-.21.32-.39.67-.61,1-.91,1.33-2.28,1.51-3.73,1.48a7,7,0,0,1-3.9-1.35c-.36-.25-.72-.74-1.19-.49s-.15.76-.16,1.17a34.69,34.69,0,0,1,.1,3.81c-.18,1.29-.77,1.93-1.9,1.79a1.48,1.48,0,0,1-1.47-1.29,42,42,0,0,1-.51-7,32.85,32.85,0,0,1,0-3.29,1.65,1.65,0,0,1,1.45-1.64A2.14,2.14,0,0,1,99,4.07a14.3,14.3,0,0,0,4,3.38c1.82.9,2.37.66,3.45-1.09a15.35,15.35,0,0,0,2.15-5.09A1.62,1.62,0,0,1,110.14,0a1.91,1.91,0,0,1,1.77,1.18A16.23,16.23,0,0,1,112.9,5.72Z"/><path d="M49.59,16.58c.12-.48.19-1-.65-1-.38,0-.52-.37-.63-.68a35.11,35.11,0,0,1-2.39-8.19c-.48-3.62,1.31-5,4.64-4.93a12.11,12.11,0,0,1,7.08,2.51,7.55,7.55,0,0,1,2.94,5.85,7.38,7.38,0,0,1-5,7.18c-1.33.52-2.74.79-4.05,1.38C50.63,19.12,49.46,17.8,49.59,16.58Zm7.53-6.2a3.81,3.81,0,0,0-.47-2.26A6.7,6.7,0,0,0,51,5.43c-.69,0-1,.2-.89,1,.27,2.65,1.09,5.21,1.21,7.88,0,.55.48.48.8.42.61-.1,1.2-.3,1.79-.45A4.3,4.3,0,0,0,57.12,10.38Z"/><path d="M173.16,10.9a6.82,6.82,0,0,1,1.22-3.66,19.45,19.45,0,0,1,3.45-4.36,6.83,6.83,0,0,1,3.09-1.6,3.58,3.58,0,0,1,2.35,1.21,2.42,2.42,0,0,1-.67,2.65c-.15.11-.36.27-.51.23-1.74-.37-2.2.69-3.12,1.6-.33.33-.61.7-.95,1.1a5.46,5.46,0,0,0-.83,1.36,1.84,1.84,0,0,0,.26,2.11,1.8,1.8,0,0,0,2,.15c.91-.46,1.72-.94,1.88-2.16a1.83,1.83,0,0,1,1.92-1.72,2.6,2.6,0,0,1,2.24,2,81.18,81.18,0,0,1,.88,8.8,1.87,1.87,0,0,0,.36,1c.31.42.53.84.07,1.3s-1,.95-1.71.66a3,3,0,0,1-2-2.2,34.32,34.32,0,0,1-1-4.35c-.06-.54-.22-.86-.85-.35-1.94,1.59-6.77,1-8-2.36A5.9,5.9,0,0,1,173.16,10.9Z"/><path d="M7.51,1.82A9.87,9.87,0,0,1,11,3c.8.34.88,1.3.35,2.31S10.24,6.7,9.5,6C8.27,4.88,7.15,5.46,6,5.85c-.62.19-.7.49-.23,1a8.91,8.91,0,0,0,3,2.6c1.78.77,2.14,2.68,2.86,4.32.62,1.41.11,2.73,0,4.08a1.41,1.41,0,0,1-.84,1.19c-2.83,1.14-5.67.05-8.71.34A1.42,1.42,0,0,1,.8,19.15,1.86,1.86,0,0,1,0,17.38c.15-.53.07-1.59.82-2.15s2.54.52,3.51.71a11.65,11.65,0,0,0,3.27-.19c.62-.08.73-.85.51-1.36A5.25,5.25,0,0,0,5.66,12a11.64,11.64,0,0,1-1.8-1.42C1.4,8.58,1,6.63,2.1,3.53A1.78,1.78,0,0,1,3.59,2.27,17.93,17.93,0,0,1,7.51,1.82Z"/><path d="M20.47,20.1c-2.23-.05-3.6-1.34-4.31-3.54a30.31,30.31,0,0,1-1.29-7.48,1.26,1.26,0,0,0-.3-.7c-.82-1.05-.78-1.67-.07-2.82A6.13,6.13,0,0,1,18.18,3a19.29,19.29,0,0,1,5-1.13,9,9,0,0,0,1.54-.25c1-.19,1.43.26,1.28,1.29S25.6,4.4,24.36,4.52a12,12,0,0,0-5.61,2.33c-.09.07-.23.24-.2.31.34,1.08-.36,2.09-.22,3.15.07.51.14.74.87.52,1.19-.37,2.25-1,3.42-1.37a1.3,1.3,0,0,0,.76-.41c.49-.72,1.21-.4,1.65-.13a1.28,1.28,0,0,1,.41,1.65A2.81,2.81,0,0,1,24.25,12C23,12.63,21.81,13.31,20.6,14a3.16,3.16,0,0,0-1,.76c-.4.54,0,1.06.26,1.53s.68.21,1,.06a9.76,9.76,0,0,0,3.52-2.05,1.23,1.23,0,0,1,1.83-.26c.66.54.36,1.13.14,1.77a2.88,2.88,0,0,1-.91,1.25A22.07,22.07,0,0,1,22,19.72,2.82,2.82,0,0,1,20.47,20.1Z"/><path d="M71.18,14.42c-.2-2,.64-3.66.95-5.41S73,5.67,73.39,4c.53-2.24,1.68-2.9,3.79-1.89a8.57,8.57,0,0,1,3.45,3.7C81.71,7.61,82,9.71,82.9,11.57a10.24,10.24,0,0,1,.65,2.91c.17,1,.46,2,.71,3a2.85,2.85,0,0,1,.12,1,1.13,1.13,0,0,1-.92,1,1.47,1.47,0,0,1-1.39-.92,25.41,25.41,0,0,1-1.67-3.08,1.07,1.07,0,0,0-1.6-.75,27.86,27.86,0,0,1-3.7.84c-.38.11-.57.19-.66.65a1.27,1.27,0,0,1-1.65,1.18c-1.14-.2-1.57-.55-1.62-1.58C71.15,15.3,71.18,14.77,71.18,14.42Zm4.44-2.67c.78-.26,1.75,0,2.67-.26.38-.12.61-.26.41-.68-.59-1.25-.83-2.68-1.76-3.78-.18-.21-.2-.6-.61-.5s-.43.38-.52.66c-.43,1.22-.47,2.53-1,3.74C74.61,11.48,74.84,11.82,75.62,11.75Z"/><path d="M128.23.55c.77,0,1,0,1.28.31A1,1,0,0,1,129.86,2a1.51,1.51,0,0,1-1,1,38.92,38.92,0,0,1-6.63,2.33c-.51.12-1,1.66-.9,2.13s.85.09,1.29,0c1.15-.2,2.37-.1,3.38-1,.31-.28,1.11.21,1.52.6a1.44,1.44,0,0,1,.13,1.73,2.84,2.84,0,0,1-1.54,1.31,16.8,16.8,0,0,1-3.4,1.22c-1,.23-1.08.49-.39,1.23,1.61,1.7,2.81,1.85,5.14.49.6-.35,1.36-.41,1.81-1.08.21-.31.67-.21,1,.08a.76.76,0,0,1,.21,1,7.61,7.61,0,0,1-3.72,3.84,4.25,4.25,0,0,1-3,.63,6.87,6.87,0,0,1-4.12-2,11.85,11.85,0,0,1-2.07-3.72c-.92-2.52-.29-6.28.12-8.64a1.28,1.28,0,0,1,1.16-.94C121.48,1.82,124,1,126.69.71A5.06,5.06,0,0,1,128.23.55Z"/><path d="M193.87,18a3,3,0,0,1-2.66-1.32c-1.84-2.06-1.82-4.62-2.06-7.14a22.37,22.37,0,0,0-.31-3,2.49,2.49,0,0,1,1.3-2.72,9.36,9.36,0,0,1,4-1.58,36.49,36.49,0,0,0,4.49-.82c1.16-.29,1.29.5,1.62,1.21s0,1.22-.65,1.56c-1.25.63-2.65.84-3.93,1.44-.57.27-1.22.45-1.82.7a1.58,1.58,0,0,0-.91,2.12c.1.33.29.29.52.24a8.65,8.65,0,0,0,3.21-1.12c.72-.53,1.16,0,1.69.19A1,1,0,0,1,199,8.86c-.09.6-.26,1.18-.91,1.4a28.61,28.61,0,0,0-4,2c-.3.15-.68.29-.48.8s.28,1,.92,1a2,2,0,0,0,1.05-.18,21,21,0,0,1,4.26-1.58c.77-.23,1.36-.2,1.7.61a1.45,1.45,0,0,1-.88,1.81,21.64,21.64,0,0,0-4.22,2.44A3.88,3.88,0,0,1,193.87,18Z"/><path d="M169.56,11.38c-.31,1.76.56,2.62,1,4.32a4.59,4.59,0,0,1-.08,2.39c-.22.79-1.61,1-2.35.38a2.4,2.4,0,0,1-.92-1.36c-.27-1.14-.9-2.17-1.07-3.34-.08-.54-.68-.7-1.56-.43a9.22,9.22,0,0,1-2.4.34c-.26,0-.74,0-.83.26s-.43,1.17-.64,1.57-.52,1.24-1.2,1.07c-1.24-.3-1.45-1-1.36-2.08,0-.52.19-.75.32-1.51s.17-1.71.3-2.47,1-4.14,1.45-6.27a2.47,2.47,0,0,1,3.21-2.09c2.19.6,3.24,2.2,4.18,4,.51,1,.7,2.83,1.59,3.61A2,2,0,0,1,169.56,11.38Zm-6.51-5.1c-.25,0-1,1-1.11,1.62s-.62,1.79-.13,2.31c.33.35,1.7.23,2.43.07.16,0,.3-.12.46-.15.34-.06.32-.27.23-.51A11.65,11.65,0,0,0,163.05,6.28Z"/><path d="M43.93,10.71a25.22,25.22,0,0,1-.43,4.11,3.37,3.37,0,0,1-4.16,3,10.39,10.39,0,0,1-6.19-4c-.23-.29-.45-.67-.83-.56s-.46,1-.42,1.26c.14,1.12-.34,3.56-1.44,3.88-.63.19-1.81-.78-1.76-1.55.08-1.28.11-4.86.05-6.58A4.21,4.21,0,0,1,29.59,7a1,1,0,0,1,1.9.06c.89,1.72,2.61,2.62,3.8,4a12.56,12.56,0,0,0,3.76,3.35c.87.45,1.38.28,1.64-.65A9.4,9.4,0,0,0,41,8.49a4.9,4.9,0,0,0-1.21-2.13,15.57,15.57,0,0,1-1.91-2.87A1.23,1.23,0,0,1,38.45,2a2,2,0,0,1,2-.1,4.48,4.48,0,0,1,1.79,2.13A16.76,16.76,0,0,1,43.93,10.71Z"/><path d="M137.87,17.47a14.78,14.78,0,0,1-2.32-.39,2.19,2.19,0,0,1-1.34-2.1,1,1,0,0,1,.51-1c.33-.12.95-.21,1.54-.35a16.83,16.83,0,0,1,2.5.07c.45-.07,1.11.17,1.27-.43s-.34-.92-.69-1.32a6.34,6.34,0,0,0-2-1.45,7.51,7.51,0,0,1-3.89-4.06,2.38,2.38,0,0,1,1.42-3.3,12,12,0,0,1,4.42-1.42c1.13,0,1.87.24,2.08,1A1.86,1.86,0,0,1,140,5c-.52.19-1.06.34-1.58.52-.27.1-.57.2-.6.56a.75.75,0,0,0,.53.75,11.83,11.83,0,0,1,2.74,1.86,8.79,8.79,0,0,1,2.43,4.27,3.13,3.13,0,0,1-1.81,3.59A14.19,14.19,0,0,1,137.87,17.47Z"/><path d="M150.14,1.18c1.66,0,2.15.31,2.21,1.29a2,2,0,0,1-1.55,2.07c-.42.12-1.11-.07-1.2.44s.53.83.93,1.21a35,35,0,0,1,4.62,4.49,2,2,0,0,1,.07,2.23,4.89,4.89,0,0,1-3.12,2.61,23.43,23.43,0,0,0-3.54,1.39,3.49,3.49,0,0,1-2.71-.15c-.22-.06-.29-.22-.34-.42a2.2,2.2,0,0,1,1.42-2.55c1.1-.38,2.2-.75,3.28-1.19.37-.15.86-.38.92-.81s-.37-.71-.74-.95c-.85-.55-1.66-1.15-2.51-1.71a5.9,5.9,0,0,1-2.54-4.72,2.64,2.64,0,0,1,1.83-2.74A9.57,9.57,0,0,1,150.14,1.18Z"/><path d="M205.76,6c0-2.06.54-3.12,1.87-3.63,1.87-.71,2.81.6,3.29,2a.63.63,0,0,1,0,.47c-.49.84-1,1.69-1.43,2.55-.34.66-2,1-2.78.54A1.79,1.79,0,0,1,205.76,6Z"/><path d="M206.67,13.49a2.52,2.52,0,0,1,1.75-2.59A2.27,2.27,0,0,1,211,12.64c.32,1.15-.51,1.81-1.15,2.51a1.73,1.73,0,0,1-2,.51A2.07,2.07,0,0,1,206.67,13.49Z"/></g></g></svg>