<svg xmlns="http://www.w3.org/2000/svg" viewBox="0 0 232.41 23.7"><title>oops</title><g id="Layer_2" data-name="Layer 2"><g id="Layer_1-2" data-name="Layer 1"><path d="M142.59,16.53a22.9,22.9,0,0,0-3.67-2.69c-.58-.38-1-1-1.75-1.17s-.84-.57-.47-1.29a8.71,8.71,0,0,0,1.45-4.26A4.8,4.8,0,0,0,137.89,5C137.13,2.88,136,2.14,133.62,3c-1.77.65-2.71,2.43-4.48,3.19-1.14.49-1.25,1.93-1.2,3.12.11,2.27.54,4.53.5,6.82,0,.57.08,1.3.72,1.4,2.34.37,1.85-.47,2.39-2.18a1.17,1.17,0,0,1,1.39-.49c2.11,1.06,4.8,3,6.83,4.17,1,.57,1.76,1.48,3,1.65.53.07,1.06.37,1.49-.27a2,2,0,0,0,.32-2C144.2,17.39,143.23,17.16,142.59,16.53Zm-9.77-6A1.32,1.32,0,0,1,131.75,9c.05-.79,1.08-1.86,1.72-1.81s.94,1.13.61,2S133.46,10.59,132.82,10.54Z"/><path d="M179.07,14.51c-.38-1.31-.41-2.68-.84-4a15,15,0,0,0-5.13-7.9,2.57,2.57,0,0,0-3.59.31c-.37.43-.27,1-.48,1.46a24.7,24.7,0,0,0-2.36,12.35,1.94,1.94,0,0,0,1.45,1.78c1,.32,1.88-.45,2-1.67.05-.53,0-1.15.78-1.12a6.86,6.86,0,0,0,3.66-.81c.53-.31,1,0,1,.52-.11,1.47.66,2.79.59,4.25a1.68,1.68,0,0,0,1.3,1.54c.72.25,1-.38,1.38-.84a3.22,3.22,0,0,0,.49-1.87C179.15,17.18,179.44,15.81,179.07,14.51Zm-5.38-2.7c-1.11.41-2.09-.21-3.13-.32-.42,0-.2-.47-.22-.72a17.65,17.65,0,0,1,1-3.38c.12-.33.32-.68.69-.27a11,11,0,0,1,2.31,3.48C174.64,11.33,174.31,11.58,173.69,11.81Z"/><path d="M232.21,4.9a7.17,7.17,0,0,0-.55-2.77,1.46,1.46,0,0,0-1.58-.92,1.56,1.56,0,0,0-1.39,1.33,2.15,2.15,0,0,0-.05.87c.09.46.43,2.48.43,2.85,0,1.73.41,3.44.19,5.18a6.61,6.61,0,0,1-.89,2.47,1.33,1.33,0,0,1-1.7.58,5,5,0,0,1-1.62-1.06c-1.77-1.6-2.49-3.82-3.31-5.94a3.76,3.76,0,0,0-2.24-2.3c-1.34-.48-2.24.36-2.4,1.88a20.15,20.15,0,0,1-1.72,7.24,1.87,1.87,0,0,0,.88,2.17c.67.26,1.82-.11,1.91-.69a9.82,9.82,0,0,1,.75-2.11c.11-.26,0-.65.41-.7s.52.27.66.51a9.38,9.38,0,0,0,6.2,4.55c1.63.36,3.9-.29,4.55-1.66a17.07,17.07,0,0,0,1.67-6.3C232.36,8.55,232.35,6.72,232.21,4.9Z"/><path d="M30.08,10.33C29.2,8.24,27.44,7.07,25.61,6a4.82,4.82,0,0,0-2.41-.72c-1.36,0-2.62.79-4,.54a.58.58,0,0,0-.36.12A5.79,5.79,0,0,0,16,10.54c-.12,2.34-.27,4.68,1,7a6,6,0,0,0,4.12,3.17A7.88,7.88,0,0,0,28,18.42a6.23,6.23,0,0,0,2.5-5.14A6.55,6.55,0,0,0,30.08,10.33Zm-5,5.9a3.41,3.41,0,0,1-3.61.68c-1.37-.52-1.31-1.71-1.57-2.77a3,3,0,0,1,0-.89A7.22,7.22,0,0,1,20.17,11c.18-1.23.6-1.57,1.85-1.55.19,0,2.84-.32,3.67.29a3.94,3.94,0,0,1,1.71,3.54C27.3,14.83,26,15.42,25,16.23Z"/><path d="M125.22,2.39c-1.93-.75-3.88-.23-5.79,0s-3.69.72-5.55,1.06c-2.1.39-4.24.53-6.31,1.07a1.15,1.15,0,0,0-.83.6,1.89,1.89,0,0,0-.12,2,2.14,2.14,0,0,0,2.24,1.1c1.58-.28,3.14-.65,4.7-1,.37-.08.74-.24.8.33a53.65,53.65,0,0,1,.67,5.52,15.82,15.82,0,0,0,.72,4.82,2.28,2.28,0,0,0,2.49,1.46c.68-.15,1.17-1.18,1.11-2.16a65.15,65.15,0,0,1-.07-7.57c-.1-.6.3-1.56-.28-2.5-.21-.35-.4-1.15.48-1.32a28.25,28.25,0,0,1,3.27-.55c.58,0,1.29-.22,1.82.37a1.22,1.22,0,0,0,2.12-.48A2.1,2.1,0,0,0,125.22,2.39Z"/><path d="M192,17.3c-.13-2,.19-4.1-.56-6.09a2.11,2.11,0,0,0-3.62-.91c-.3.29-.56.63-.87.92a1.24,1.24,0,0,1-1.52.32c-.55-.34-.23-.94-.13-1.43,0-.1.09-.18.1-.27C185.5,8.6,186.65,8,187.12,7a5.17,5.17,0,0,1,3-2.5,2,2,0,0,0,1.38-1.59,1.57,1.57,0,0,0-.75-1.69,2.43,2.43,0,0,0-2.33-.07,12.65,12.65,0,0,0-3.19,2.38,10.88,10.88,0,0,0-4,6.85c-.49,3.63,2,6,5.56,5,1-.27,1.06-.21,1.17.83.21,1.94.11,3.94.81,5.8.3.78.59,1.66,1.63,1.69a2,2,0,0,0,1.73-2.6A17.91,17.91,0,0,1,192,17.3Z"/><path d="M42.2,4.76a9.1,9.1,0,0,0-4.27-1.2c-2.3-.25-3.8.39-4.65,2.06a5.12,5.12,0,0,0-.51,2.47,2.93,2.93,0,0,0,.48,2.23,4.74,4.74,0,0,1,.47,1.58,14.74,14.74,0,0,0,1.48,5.4,1.5,1.5,0,0,1,.2.65c.09,1.43,1.23,1.62,2.36,1.57.73,0,1.25-1.06,1.14-2.1a7,7,0,0,0-.12-.78c-.1-.46,0-.7.56-.77a7.75,7.75,0,0,0,3.46-1.42,5.65,5.65,0,0,0,2.58-5.37C45.21,7,43.74,5.81,42.2,4.76Zm-.94,5.62a3.72,3.72,0,0,1-2.7,1.87c-.5.14-.71,0-.85-.48-.3-1-.66-2-1-3-.36-1.24,0-1.66,1.44-1.61a4.89,4.89,0,0,1,2.5.88C41.4,8.66,42,9.12,41.26,10.38Z"/><path d="M13.42,8.36C10.89,5.08,8,4.68,4.38,5.91A5.55,5.55,0,0,0,1.85,7.82c-2,2.79-2.85,6.9,0,10.32a5.27,5.27,0,0,0,3.85,2,8.48,8.48,0,0,0,5.76-1.77,6.74,6.74,0,0,0,2.9-5.9C14.3,11.09,14.37,9.59,13.42,8.36Zm-2.26,4.08c.1,3.26-4.34,5.37-6.41,4a1.66,1.66,0,0,1-.52-.42c-.77-1.15-1.45-4-.43-5.49.42-.63,3.84-1.72,4.63-1.75C10.28,8.74,11.46,10.72,11.16,12.44Z"/><path d="M204.37,8a11.12,11.12,0,0,0-2.76-4.33,2.64,2.64,0,0,0-4.38,1.21c-.33,1.64-.81,3.23-1.28,4.83a42.89,42.89,0,0,0-1.74,6.1,1.33,1.33,0,0,0,.13,1,1.66,1.66,0,0,0,2,.9,1.54,1.54,0,0,0,1.08-1.84c-.1-.63.12-1.06.87-.91,1.14.24,2.13-.39,3.14-.67s.93,0,1.05.64a9.16,9.16,0,0,0,.52,2.68,1.85,1.85,0,0,0,1.72.92c.69.06.93-.49,1.2-1a3,3,0,0,0,.3-1.35c-.33-1.55-.12-3.17-.68-4.7C205.1,10.39,204.87,9.14,204.37,8Zm-4.85,3.15c-.53-.06-.87-.22-.65-.82a5.19,5.19,0,0,1,.23-.73c.28-.42.11-1.2.82-1.24.35,0,1.16,1.69,1,2.07C200.7,11.15,200,11,199.52,11.17Z"/><path d="M51.51,9.8c-.81-.74-.41-1,.21-1.31.26-.14.56-.18.83-.3A7.73,7.73,0,0,0,55.2,6.77a2.38,2.38,0,0,0,.67-2.49,2,2,0,0,0-2.43-.7c-.31.09-.6.25-.91.34-1.7.5-3.11,1.61-4.78,2.18-1.47.49-2.27,1.62-1.74,2.5a18,18,0,0,0,1.64,2.73c1.24,1.4,2.66,2.6,4,3.92.27.26.83.7.17,1a16.48,16.48,0,0,1-3.66,1.31,3.06,3.06,0,0,0-2.5,2.39c0,1,.37,1.69,1.16,1.75a4.26,4.26,0,0,0,2-.29A34.64,34.64,0,0,1,55.41,19a1.88,1.88,0,0,0,1.14-3A27.45,27.45,0,0,0,51.51,9.8Z"/><path d="M150.55,0c-1.17-.08-1.29,0-1.33,1.19a4.07,4.07,0,0,0,0,.78,7.55,7.55,0,0,1-.6,3.81c-.19.48-.25,1.13-.95,1s-3.42-3.4-4.06-3.47a2,2,0,0,0-2,1.17A2.18,2.18,0,0,0,141.8,7a8.1,8.1,0,0,0,4.39,3.81c.43.17.76.41.8.88a40.41,40.41,0,0,0,.89,4.1,2.28,2.28,0,0,0,2.34,1.89c.47,0,1.54-1.25,1.53-1.93,0-1.67.31-3.37-.49-5a1.84,1.84,0,0,1-.11-1.61,28.94,28.94,0,0,0,1.64-6.53C153.07,1,152.25.13,150.55,0Z"/><path d="M212.38,4.07c.11-1-.66-1.34-1.28-1.66s-1.26.1-1.64.7a6.47,6.47,0,0,0-.39.89c-1,2.27-.55,4.69-.77,7a27.08,27.08,0,0,0,.51,5.54,1.86,1.86,0,0,0,1.7,1.94.59.59,0,0,0,.8-.32,4.17,4.17,0,0,0,.6-1.83c.11-3.77.26-7.55.41-11.48C212.33,4.72,212.34,4.39,212.38,4.07Z"/><path d="M85.4,15.36c-1,0-2.31,1.57-2.31,2.83s1,2,2.57,2.06,2.15-.55,2.19-1.82S86.62,15.41,85.4,15.36Z"/><path d="M76.15,15.35a1.83,1.83,0,0,0-3,1.11A3,3,0,0,0,75.66,20c.78,0,2-1.37,2-2.44S77,15.9,76.15,15.35Z"/><path d="M64.64,16.05a2.48,2.48,0,0,0-2.15,2.08,2.67,2.67,0,0,0,2.35,2.36,2.17,2.17,0,0,0,2.33-2.22C67.24,17,66.25,16.13,64.64,16.05Z"/></g></g></svg>