<?xml version="1.0" encoding="UTF-8"?>
<svg width="67px" height="32px" viewBox="0 0 67 32" version="1.1" xmlns="http://www.w3.org/2000/svg" xmlns:xlink="http://www.w3.org/1999/xlink">
    <!-- Generator: Sketch 52.3 (67297) - http://www.bohemiancoding.com/sketch -->
    <title>roofLogo/full-red@3x</title>
    <desc>Created with Sketch.</desc>
    <g id="roofLogo/full-red" stroke="none" stroke-width="1" fill="none" fill-rule="evenodd">
        <g id="Group-4" transform="translate(24.000000, 12.400000)" fill="#FF5A64" fill-rule="nonzero">
            <g id="Group-3" transform="translate(0.699999, 4.000000)">
                <path d="M2.68000031,10.2800007 C2.68000031,10.8322854 2.23228506,11.2800007 1.68000031,11.2800007 C1.12771556,11.2800007 0.680000305,10.8322854 0.680000305,10.2800007 L0.680000305,0.299999237 C0.680000305,-0.252285513 1.12771556,-0.700000763 1.68000031,-0.700000763 C2.23228506,-0.700000763 2.68000031,-0.252285513 2.68000031,0.299999237 L2.68000031,10.2800007 Z" id="Rectangle-2"></path>
                <path d="M7.469769,-0.837571745 C8.00438094,-0.698976966 8.32541629,-0.153235087 8.18682151,0.381376858 C8.04822673,0.915988804 7.50248485,1.23702415 6.9678729,1.09842937 C6.716755,1.03332863 6.45386446,1 6.18000031,1 C4.19456816,1 2.68000031,2.87517964 2.68000031,5.30000114 C2.68000031,5.85228589 2.23228506,6.30000114 1.68000031,6.30000114 C1.12771556,6.30000114 0.680000305,5.85228589 0.680000305,5.30000114 C0.680000305,1.85339558 2.98466549,-1 6.18000031,-1 C6.62271348,-1 7.05426204,-0.945289307 7.469769,-0.837571745 Z" id="Oval-4"></path>
            </g>
            <g id="Group-2" transform="translate(8.900002, 0.000000)">
                <path d="M5.67999649,15.6000004 C2.48465936,15.6000004 0.17999649,12.7466074 0.17999649,9.30000019 C0.17999649,5.85339297 2.48465936,3 5.67999649,3 C8.87533362,3 11.1799965,5.85339297 11.1799965,9.30000019 C11.1799965,12.7466074 8.87533362,15.6000004 5.67999649,15.6000004 Z M5.67999649,13.6000004 C7.66543091,13.6000004 9.17999649,11.7248234 9.17999649,9.30000019 C9.17999649,6.87517699 7.66543091,5 5.67999649,5 C3.69456207,5 2.17999649,6.87517699 2.17999649,9.30000019 C2.17999649,11.7248234 3.69456207,13.6000004 5.67999649,13.6000004 Z" id="Oval-3"></path>
                <path d="M17.8999996,15.6000004 C14.7046625,15.6000004 12.3999996,12.7466074 12.3999996,9.30000019 C12.3999996,5.85339297 14.7046625,3 17.8999996,3 C21.0953367,3 23.3999996,5.85339297 23.3999996,9.30000019 C23.3999996,12.7466074 21.0953367,15.6000004 17.8999996,15.6000004 Z M17.8999996,13.6000004 C19.885434,13.6000004 21.3999996,11.7248234 21.3999996,9.30000019 C21.3999996,6.87517699 19.885434,5 17.8999996,5 C15.9145652,5 14.3999996,6.87517699 14.3999996,9.30000019 C14.3999996,11.7248234 15.9145652,13.6000004 17.8999996,13.6000004 Z" id="Oval-3"></path>
                <g id="Group" transform="translate(24.799999, 0.000000)">
                    <path d="M2.0799942,14.2799997 C2.0799942,14.8322845 1.63227895,15.2799997 1.0799942,15.2799997 C0.527709452,15.2799997 0.0799942017,14.8322845 0.0799942017,14.2799997 L0.0799942017,6.70000076 C0.0799942017,6.14771601 0.527709452,5.70000076 1.0799942,5.70000076 C1.63227895,5.70000076 2.0799942,6.14771601 2.0799942,6.70000076 L2.0799942,14.2799997 Z" id="Rectangle-2"></path>
                    <path d="M1.47999573,9 C0.927710978,9 0.479995728,8.55228475 0.479995728,8 C0.479995728,7.44771525 0.927710978,7 1.47999573,7 L4.87999344,7 C5.43227819,7 5.87999344,7.44771525 5.87999344,8 C5.87999344,8.55228475 5.43227819,9 4.87999344,9 L1.47999573,9 Z" id="Line"></path>
                    <path d="M6.86976862,0.562427874 C7.40438056,0.701022653 7.7254159,1.24676453 7.58682113,1.78137648 C7.44822635,2.31598842 6.90248447,2.63702377 6.36787252,2.49842899 C6.11675462,2.43332825 5.85386408,2.39999962 5.57999992,2.39999962 C3.59456777,2.39999962 2.07999992,4.27517925 2.07999992,6.70000076 C2.07999992,7.25228551 1.63228467,7.70000076 1.07999992,7.70000076 C0.527715174,7.70000076 0.0799999237,7.25228551 0.0799999237,6.70000076 C0.0799999237,3.2533952 2.3846651,0.399999619 5.57999992,0.399999619 C6.0227131,0.399999619 6.45426166,0.454710312 6.86976862,0.562427874 Z" id="Oval-4"></path>
                </g>
            </g>
        </g>
        <path d="M17.9751585,29.6474811 C17.6554277,30.8406258 16.5675438,31.7000008 15.1800003,31.7000008 L8.81999969,31.6999996 C7.51604354,31.6999996 6.37151865,30.8406255 6.03094302,29.6474811 L4.84000015,29.6474811 C2.92000055,29.6474811 1.17999983,28.4200001 1.17999983,26.1000004 L1.17999983,5.0568293 C1.17999983,1.27999997 4.00464389,-0.479243746 7.32008282,0.577643122 L19.5933719,4.49008981 C21.4054123,5.06772728 22.8192958,6.69999981 22.8192958,8.69999981 L22.8192958,26.1000004 C22.8192958,28.4200001 21.0799999,29.6474811 19.1599998,29.6474811 L17.9751585,29.6474811 Z M18.0711049,27.6263555 L19.1606816,27.6263555 C20.2600002,27.6263555 20.7954767,26.8999996 20.7954767,25.7999992 L20.7954767,8.89999962 C20.7954767,7.57999992 19.8523658,6.68205083 18.9779564,6.41550409 L6.70466738,2.5030574 C4.69486647,1.86237838 3.20381887,2.6500001 3.20381887,5.0568293 L3.20381887,25.7999992 C3.20381887,26.8999996 3.73999977,27.6299992 4.83861396,27.6263555 L5.92819066,27.6263555 L5.92819066,13.4399996 C5.92819066,11.6800003 7.26000023,10.5559159 8.81999969,10.5559159 L15.1800003,10.5559159 C16.7399998,10.5600004 18.0711049,11.6800003 18.0711049,13.4399996 L18.0711049,27.6263555 Z M9.22000027,12.5770415 C8.36999989,12.5770415 7.9520097,13 7.9520097,13.9399996 L7.9520097,28.4099998 C7.9520097,29.0579151 8.36999989,29.678874 9.22000027,29.678874 L14.7800007,29.678874 C15.6299992,29.678874 16.0472859,29.0579151 16.0472859,28.4099998 L16.0472859,13.9399996 C16.0472859,13 15.6299992,12.5770415 14.7800007,12.5770415 L9.22000027,12.5770415 Z M13.5564317,21.9830494 C14.2872515,21.9830494 14.879698,21.3913913 14.879698,20.6615441 C14.879698,19.9316969 14.2872515,19.3400389 13.5564317,19.3400389 C12.8256119,19.3400389 12.2331654,19.9316969 12.2331654,20.6615441 C12.2331654,21.3913913 12.8256119,21.9830494 13.5564317,21.9830494 Z" id="roof-logo" fill="#FF5A64"></path>
    </g>
</svg>