<svg xmlns="http://www.w3.org/2000/svg" viewBox="0 0 268.99 27.44"><title>sanFrancisco</title><g id="Layer_2" data-name="Layer 2"><g id="Layer_1-2" data-name="Layer 1"><path d="M38.07,12.38a8.15,8.15,0,0,0,.12,3.22A15.65,15.65,0,0,1,38.25,19a2.61,2.61,0,0,1-.43,1.29,1.4,1.4,0,0,1-2.32.28,3.07,3.07,0,0,1-.89-2.1c-.27-2.74,0-5.49-.09-8.23a11.61,11.61,0,0,0-.11-1.86,2.13,2.13,0,0,1,1.08-2.32,2.28,2.28,0,0,1,2.74.69c1.16,1.58,2.36,3.12,3.63,4.61A34.84,34.84,0,0,0,45.79,15c.37.32.58.23.65-.24A65.72,65.72,0,0,0,47,5.72c0-1.31,0-2.62,0-3.92,0-1,.55-1.71,1.34-1.79.95-.1,1.43.49,1.73,1.28a5.26,5.26,0,0,1,.35,2.51c-.36,3-.15,6-.3,9a23.46,23.46,0,0,1-.64,4.94c-.6,2.18-1.88,2.6-3.79,1.37a40.81,40.81,0,0,1-4.35-3.72A42.22,42.22,0,0,0,38.07,12.38Z"/><path d="M94.15,7a18.35,18.35,0,0,1-1.4,6.37c-.33.71-.27,1.1.54,1.51a23.89,23.89,0,0,1,5.32,3.64,5.41,5.41,0,0,0,2.25,1.32c.57.16,1.16.4,1.14,1.16s-.64,1-1.26,1.15a3.52,3.52,0,0,1-2.83-.41c-1.41-.89-2.73-1.92-4.19-2.71a17.93,17.93,0,0,0-5.34-1.81c-.57-.1-.37.47-.35.79,0,1.55-1.26,2.63-2.52,2.07a1.91,1.91,0,0,1-1.07-1.75,24.61,24.61,0,0,1,.61-8.74,17.92,17.92,0,0,1,3.5-6.83,2.77,2.77,0,0,1,4.36.11A5.7,5.7,0,0,1,94.15,7Zm-3.3.46c0-.16,0-.32,0-.49,0-.34.12-.85-.28-1s-.52.44-.66.73a18,18,0,0,0-1.56,5.72c0,.31-.16.71.29.82s.57-.24.73-.52A11.92,11.92,0,0,0,90.85,7.43Z"/><path d="M102,15.25A74.31,74.31,0,0,1,104,4c.51-2.13,2.51-2.54,4.11-1.33a9.18,9.18,0,0,1,2.39,2.83,61.16,61.16,0,0,1,3.24,6.91,1.87,1.87,0,0,0,1.83,1.3c.13,0,.26,0,.39,0,.61,0,1.26,0,1.48.68a1.22,1.22,0,0,1-.89,1.47c-1.2.36-.94.91-.59,1.78A16.53,16.53,0,0,1,117,20.84c.19,1-.15,1.8-.9,2a1.71,1.71,0,0,1-2-1.17c-.45-1.15-.88-2.31-1.26-3.49-.26-.79-.57-.87-1.5-.84a29.9,29.9,0,0,1-5.51-.08c-.22,0-.38.35-.52.5a2,2,0,0,1-2.53.38c-.94-.45-.81-1.46-.81-2.35C102,15.67,102,15.54,102,15.25Zm4.84-8.73c-.46,2.2-.87,4.23-1.32,6.26-.18.84,0,1,.93,1a7.91,7.91,0,0,1,1.26.1,12.6,12.6,0,0,0,2.52.32c.71-.06.92-.4.57-1-.21-.4-.41-.81-.58-1.23A16.11,16.11,0,0,0,106.84,6.52Z"/><path d="M250.58,14.09a20.89,20.89,0,0,1,2.68-10.47C254.62,1,257.18.78,259,3.1a26.33,26.33,0,0,1,2.89,5.58c.39.86.78,1.41,1.73,1.35a32.46,32.46,0,0,1,4.09.14c.55.19,1.29.2,1.29,1.05s-.64,1-1.23,1.15c-.88.23-1.78.43-2.66.71-.41.12-1.15,0-1.11.59a3.06,3.06,0,0,0,.77,1.65,3.59,3.59,0,0,1,1,3.24,1.86,1.86,0,0,1-1.62,1.49,1.7,1.7,0,0,1-1.81-1.17c-.6-1.39-1.17-2.79-1.69-4.21-.19-.53-.48-.63-.9-.53l-5.15,1.31a.82.82,0,0,0-.56.67,7,7,0,0,1-.31.91,1.43,1.43,0,0,1-2.78-.07A5.86,5.86,0,0,1,250.58,14.09Zm4.58-2.9a11.13,11.13,0,0,0,3.07-.54c.38-.08.79-.27.55-.77a12.61,12.61,0,0,0-2.27-3.83c-.37-.36-.6-.4-.94.23A14.58,14.58,0,0,0,254.36,10C254.07,11.21,254,11.21,255.16,11.19Z"/><path d="M16.58,16.54a53.36,53.36,0,0,1,1.36-9.08c.12-.64.22-1.29.36-1.93A1.91,1.91,0,0,1,21,3.91,8.61,8.61,0,0,1,25.84,7.8,29.39,29.39,0,0,1,28,12a.83.83,0,0,0,.59.57c1,.3,1.52,1.18,1,2s-.17,1.83-.06,2.71a28.38,28.38,0,0,0,.69,3.14,2.85,2.85,0,0,1,0,1.45c-.22.89-.67,1.51-1.64,1.54A1.89,1.89,0,0,1,27,21.72c-.22-1.45-.42-2.9-.57-4.36-.08-.77-.31-1.06-1.19-.92-1.44.23-2.91.3-4.37.4-.6,0-1,.06-.85.88a1.84,1.84,0,0,1-1.6,2.19c-1.05.05-1.77-.73-1.82-2C16.54,17.45,16.57,17,16.58,16.54ZM24.27,13c.72,0,1-.35.72-.85a16,16,0,0,0-2.78-4c-.5-.45-.82-.31-1,.26a17.89,17.89,0,0,0-.79,3.71c-.06.48.13.65.56.7A17.75,17.75,0,0,1,24.27,13Z"/><path d="M118.81,12.44A17.78,17.78,0,0,0,118.68,8a2.06,2.06,0,0,1,.68-2.13,2.19,2.19,0,0,1,2.42,0,13.1,13.1,0,0,1,3.39,3.08,54.49,54.49,0,0,0,6.37,6.34c.24.19.48.39.79.23s.53-.89.65-1.29a9.4,9.4,0,0,0-.12-6.9,2.67,2.67,0,0,1-.19-1.53,1.45,1.45,0,0,1,2.48-1,4.43,4.43,0,0,1,1.58,3.16,19.08,19.08,0,0,1-.33,6,18.42,18.42,0,0,1-.82,3.43A2.35,2.35,0,0,1,132.7,19c-2.43-.4-4.13-2-5.89-3.52-1.19-1-2.25-2.19-3.35-3.3-.14-.13-.22-.36-.45-.32s-.25.34-.28.55c-.16,1-.36,1.92-.45,2.9-.14,1.7-1.26,2.49-2.52,1.9-.9-.43-1-1.24-1-2.08S118.8,13.33,118.81,12.44Z"/><path d="M77.54,3a12.82,12.82,0,0,1,2.23.37c.51.22.92.55.83,1.18s-.56.79-1.11.93A77,77,0,0,0,71,7.72c-1,.36-.48,1-.45,1.52s.39.68,1,.64c3.15-.23,6.25-.92,9.39-1.24.58-.05,1.09,0,1.32.58a1.2,1.2,0,0,1-.61,1.51,10.93,10.93,0,0,1-4,1.58c-1.69.33-3.39.65-5.08,1a1.59,1.59,0,0,0-1.2,2.52,5.14,5.14,0,0,1,.4,3c-.1.8-.38,1.55-1.35,1.68a1.87,1.87,0,0,1-2-1.33,20.26,20.26,0,0,1-.57-3.47A4.89,4.89,0,0,0,67,13.21a2.37,2.37,0,0,1-.27-2,3.13,3.13,0,0,0-.55-2.85,2.36,2.36,0,0,1,1.59-3.77,55.39,55.39,0,0,1,8-1.44C76.38,3.13,77,3.06,77.54,3Z"/><path d="M8.13,3.61a6.36,6.36,0,0,1,3.43.6c.87.52,1.15,1.16.8,1.94a1.73,1.73,0,0,1-2.26,1c-2-1-3.85-.14-5.74.19-.7.12-.67.81-.31,1.35a6.36,6.36,0,0,0,3,2.38,11.08,11.08,0,0,1,5.09,3.33c1.4,1.84,1.56,4.12-1,5.52a5,5,0,0,1-2.23.69A13.12,13.12,0,0,1,4,20.12a12.12,12.12,0,0,0-1.22-.32c-.13,0-.27,0-.39-.06C1.16,19.43.48,18.5.77,17.57s1.37-1.31,2.63-.91a9.29,9.29,0,0,0,4.95.58c.19,0,.43,0,.56-.14s.93,0,.89-.57a1.33,1.33,0,0,0-.73-1.1,14.52,14.52,0,0,0-2.31-1,10.43,10.43,0,0,1-5.58-3.9A6.19,6.19,0,0,1,.05,5.94c.11-1,.89-1.41,1.77-1.6A24.41,24.41,0,0,1,8.13,3.61Z"/><path d="M173.28,1.61a4.73,4.73,0,0,1,1.54.15A1.24,1.24,0,0,1,175.71,3a1.22,1.22,0,0,1-.92,1.14,2.69,2.69,0,0,1-1.26.11,1.92,1.92,0,0,0-1.84,1.08c-.38.62.05,1.12.42,1.58a15.36,15.36,0,0,0,3.46,2.7c.92.68,1.92,1.24,2.85,1.91,1.28.93,2.25,2.12,2,3.8s-1.74,2.53-3.28,3a14.06,14.06,0,0,1-8.3,0c-.72-.21-1.3-.58-1.25-1.41s.66-1.13,1.38-1.32a4.67,4.67,0,0,1,2.32.17,9.07,9.07,0,0,0,4.45-.27,1.52,1.52,0,0,0,.6-.29c.49-.43.76-.68,0-1.35-1.44-1.35-3.29-2-4.78-3.22A18.32,18.32,0,0,1,169,8.33c-1.91-2.26-1.3-5.47,1.23-6.21A8.08,8.08,0,0,1,173.28,1.61Z"/><path d="M238.89,20c-4.13.28-6.5-1.9-7.36-5.81a8.43,8.43,0,0,1,1.15-6.23c1.57-2.71,3.51-4.92,6.69-5.21a2.85,2.85,0,0,1,3.08,2c.26,1.14-.5,2.05-1.53,1.79-.75-.19-1.52-.89-2.25-.42a8.58,8.58,0,0,0-3.25,3.32,6.67,6.67,0,0,0-1,2.52,4.12,4.12,0,0,0,3.81,4.66c2.46.23,4.51-1,6.65-1.93a27.19,27.19,0,0,1,2.79-1.31c.44-.14,1-.27,1.23.3s-.12.87-.45,1.18C245.44,17.66,242.06,19.54,238.89,20Z"/><path d="M147.61,15.89a10.12,10.12,0,0,0,4.92-1.64,14.75,14.75,0,0,1,2.1-1.3c.46-.19.93-.28,1.15.29a2,2,0,0,1-.38,1.69,8.09,8.09,0,0,1-1.89,1.74,10,10,0,0,1-5.66,2.49c-3.68.2-6.79-1.05-7.79-4.64a5.5,5.5,0,0,1,0-3,10.94,10.94,0,0,1,4.23-6.18,4.22,4.22,0,0,1,3.44-.74,1.52,1.52,0,0,1,1.37,1.64c-.08.89-.78,1.21-1.61,1.26-1.65.1-2.35,1.44-3.1,2.56a4.6,4.6,0,0,0-1.17,2.64,3.05,3.05,0,0,0,2.47,2.94A7.89,7.89,0,0,0,147.61,15.89Z"/><path d="M162.74,17.49a5.2,5.2,0,0,1,0,.69,1.47,1.47,0,0,1-1.22,1.36,1.4,1.4,0,0,1-1.5-.88,9.37,9.37,0,0,1-.84-4.38,50.82,50.82,0,0,0-.82-8.36,1.71,1.71,0,0,1,1-2.16A1.77,1.77,0,0,1,161.54,5a8.36,8.36,0,0,1,.54,3.36,52.2,52.2,0,0,0,.31,6.73A8.2,8.2,0,0,1,162.74,17.49Z"/><path d="M214.67,22.06a50.11,50.11,0,0,0,.2-5.15,7.59,7.59,0,0,1,.09-1.17c.13-.74.5-1.31,1.31-1.36a1.42,1.42,0,0,1,1.55,1.22,11.27,11.27,0,0,1,.16,4.09,38,38,0,0,1-.69,5.62,7.09,7.09,0,0,1-.38,1.21,1.31,1.31,0,0,1-1.56.88,1.26,1.26,0,0,1-1-1.41C214.41,24.81,214.54,23.64,214.67,22.06Z"/><path d="M207.64,3A7.47,7.47,0,0,0,202.84,6a11.59,11.59,0,0,0-2.59,8.47,8,8,0,0,0,.27,2c2.52,4.69,6.69,3.51,9,.67.74-.91,1.44-1.85,2.15-2.79a10.76,10.76,0,0,0,2.22-4.85C214.39,6.16,213,2.18,207.64,3Zm3.64,7.28a18.41,18.41,0,0,1-3.19,4.89,4.29,4.29,0,0,1-3.06,1.3,2.19,2.19,0,0,1-1.15-.66,4.81,4.81,0,0,1-.58-2.28,5.56,5.56,0,0,1,.48-3.09,6.68,6.68,0,0,1,1.73-2.52c.61-.53,1.13-1.26,1.7-1.81a2.59,2.59,0,0,1,2.39-.54A3.57,3.57,0,0,1,211.28,10.26Z"/><path d="M197.5,15.39a1.3,1.3,0,0,0-1.56.28c-2,1.26-3.07,1.22-5.83,1.12a3.11,3.11,0,0,1-1.87-.74,4.86,4.86,0,0,1-1.87-4.72,8,8,0,0,1,3-5.9,3.79,3.79,0,0,0,.38.7,1.53,1.53,0,0,0,1.52.49.9.9,0,0,0,.71-.84,3.21,3.21,0,0,0-1-3.12,2.81,2.81,0,0,0-3.22.12,5.88,5.88,0,0,0-1,.8,11.71,11.71,0,0,0-3.6,8.82c.1,2.83,1.14,5.35,3.73,6.83a7.78,7.78,0,0,0,6.65.3c2.27-.78,3.35-1.56,3.64-2.05S198.29,15.88,197.5,15.39Z"/></g></g></svg>