<svg xmlns="http://www.w3.org/2000/svg" viewBox="0 0 114.77 50.33"><title>send</title><g id="Layer_2" data-name="Layer 2"><g id="Layer_1-2" data-name="Layer 1"><path d="M0,1.78C3,.19,6.34.84,9.49.53c2.23-.22,4.57.09,6.86.09,3.28,0,6.55-.18,9.82-.14,2.48,0,5,.41,7.44.39,3.73,0,7.44.48,11.2-.06,2.42-.34,5,.12,7.45,0,1.56-.09,3.1.06,4.66,0,1.77-.08,3.51.38,5.29.39,1.95,0,3.91.22,5.87.4a54.2,54.2,0,0,0,7-.07C79,1.36,82.78.78,86.66.6S94.54-.23,98.4.09c3.58.3,7.37-.18,10.77,1.53a13.45,13.45,0,0,0,2,.64c2,.61,2,2.53,3.22,3.66a.77.77,0,0,1,.1.53c-.26,3.46-.07,6.92-.45,10.38-.21,1.88.37,3.82.36,5.73,0,3.06.67,6.09.25,9.17-.23,1.78-.14,3.61-.35,5.42-.3,2.56.19,8.38-.87,10.67a2.62,2.62,0,0,1-1.75,1.33c-1.77.54-4.31.23-6.15.53-2.05.2-11.16-.13-11.88-.08-3,.23-6,.29-9.07.42a79.24,79.24,0,0,1-8.58.25c-4-.24-7.93-.05-11.9-.05-2,0-3.93-.24-5.9-.35-4.85-.27-9.71-.49-14.57-.79-2.41-.15-4.81-.76-7.23-.58-3.41.26-6.81.66-10.22,1a82.13,82.13,0,0,1-10.64,0c-3.36-.14-6,.42-8.89-.95s-3.72-3.63-3.78-6.4c0-2.1-.67-7.42-.67-9.55,0-3.43-.19-6.87-.48-10.29s-.5-6.84-1-10.24C.46,10.42-.15,1.88,0,1.78ZM90.48,45a16,16,0,0,0,3.32,0c2.63-.12,11,.23,12.23-.19,3.48-1.15,4-.05,3.76-7.27-.11-4.06-.21-8-.43-12.06s-.94-7.87-.37-11.85c.18-1.23-.08-2.52.17-3.73.22-1-.27-1.89-.28-2.84a7.87,7.87,0,0,0-1.82-1.69c-1.93-1-4.3-.09-6.39-.37-.63-.08-1.33.07-2,0a55.64,55.64,0,0,0-9.66.3c-1.25.1-2.5.07-3.75.16-2,.16-4.07.3-6.12.39a67.09,67.09,0,0,1-7,.32c-2.45-.16-4.9.14-7.35-.06-1.78-.14-3.61,0-5.37-.17-2-.19-4.07-.21-6.1-.26-3.87-.08-7.73.21-11.59.41-4.21.22-8.44-.23-12.66-.32-2.46-.06-4.94-.13-7.41-.25-1.31-.07-3.66.16-4.91.15-1,0-3.26.23-5.33.32-1.67.07-3.33-.46-5,.17-.77.29-1,.62-.92,1.28.23,1.58.63,3.14.71,4.72,0,.87.38,2.89.43,3.67a33.74,33.74,0,0,0,.44,3.62c.48,2.76.19,5.54.52,8.3.46,4-.3,9.59,1,13.52.36,1.13,1.3,3.13,2.29,3.1,1.3,0,4,0,5.32,0,2.82.07,3.89.36,6.83.35a72.93,72.93,0,0,0,8.23-.57,27,27,0,0,1,6.59-.32c3.64.46,7.31.39,11,.78,2.95.32,5.92.24,8.88.48a94.63,94.63,0,0,0,10.65.42c3.56-.11,7.13,0,10.7-.1,1,0,2-.21,3-.21C84.84,45.2,87.66,44.87,90.48,45Z"/><path d="M93.4,25.65a9.72,9.72,0,0,1-5,6.51c-1.12.66-2.31,1.17-3.49,1.72a8.06,8.06,0,0,1-3.33.35c-.5,0-1-1.25-.73-1.87s.51-1-.52-.86a1.9,1.9,0,0,1-1.89-1.83c-.3-2.24-.41-4.51-.9-6.69a12.55,12.55,0,0,1,0-4.61,1.91,1.91,0,0,1,1.3-1.84,22.34,22.34,0,0,1,5.17-.38,14.45,14.45,0,0,1,8.17,5A5.86,5.86,0,0,1,93.4,25.65ZM82.66,29.17a5.25,5.25,0,0,1-.14,1c-.26.71.1.71.61.57l.65-.2a12.58,12.58,0,0,0,4.41-2.81,3,3,0,0,0,.51-4.31c-1.43-1.95-3.53-2.7-5.72-3.29-.56-.15-.94.15-.9.81.07,1.11.11,2.21.19,3.31C82.39,25.94,82.54,27.65,82.66,29.17Z"/><path d="M43.64,33.78c-2.3-.17-3.34-1.11-3.9-3.46a51.73,51.73,0,0,1-1.18-7.73,5.24,5.24,0,0,1,.1-.77c.1-1.14.52-2.22,0-3.44-.42-1,.28-1.94,1.52-2.64a10.57,10.57,0,0,1,5.63-1.44,10.26,10.26,0,0,1,3.63.68,1.18,1.18,0,0,1,.64,1.29c0,.7-.84,1.08-1.43,1.13-1.71.15-3.17.62-4.91.86a1,1,0,0,0-.8,1.27,4.63,4.63,0,0,1,0,1.66c-.06.52.1.73.64.64,2.15-.36,4.29-.68,6.46-.83.16,0,1.64-.3,2.12.21a1.51,1.51,0,0,1-.24,1.92,6.68,6.68,0,0,1-2.34,1.39A52.85,52.85,0,0,1,43.93,26c-.62.15-.74.41-.65.94a.28.28,0,0,1,0,.09c.4,2.69,1,3,3.64,2.62,1.93-.31,2-.62,4-.4a6.06,6.06,0,0,1,1.75.3c.45.21,1,.64,1,1.2a3.1,3.1,0,0,1-.44,1.23,3.62,3.62,0,0,1-2.24.77c-2.47,0-3.12.61-5.47.92A13.48,13.48,0,0,1,43.64,33.78Z"/><path d="M60.89,26.73a12.24,12.24,0,0,0,.36,4.15,2,2,0,0,1-1,2,1.79,1.79,0,0,1-2.11.18,2.11,2.11,0,0,1-1-1.87,21,21,0,0,0-.4-4.17,30.23,30.23,0,0,1-.28-6.23A1.7,1.7,0,0,1,59,19.55a8.76,8.76,0,0,1,2.78,1.57,48.2,48.2,0,0,1,3.75,4.08,32.38,32.38,0,0,0,3.83,3.57c.64.51,1,0,1.1-.55a10.6,10.6,0,0,0,.11-4.85c-.15-.65-.15-1.3-.25-1.94a3.49,3.49,0,0,0-1.54-2.59,2.66,2.66,0,0,1-1-2.51A1.7,1.7,0,0,1,69.35,15a1.1,1.1,0,0,1,1,.23,9.25,9.25,0,0,1,2.7,4.45,35.82,35.82,0,0,1,.77,8.65,5.21,5.21,0,0,1-2.24,4.15c-1.16.89-2.41.46-3.51-.09a20.3,20.3,0,0,1-4.44-3.24C62.76,28.32,62.18,27.15,60.89,26.73Z"/><path d="M23.33,32.2c.09-1.44.56-2,1.8-2.35a3.07,3.07,0,0,0,.54-.22c1.16-.56,1.4-.46,1.6.79.11.68.57.7,1,.58a7.26,7.26,0,0,0,3.63-2.18.55.55,0,0,0,0-.86,14.89,14.89,0,0,0-4-2.89C26,24.11,24,23,23.21,20.65a2,2,0,0,1,1.15-2.78,36.74,36.74,0,0,1,7.13-2c.89-.19,2.19,1.14,1.78,2a.91.91,0,0,1-.57.58c-.8.22-1.36.31-2,.55l-2,.76c-.6.23-.59.53-.13.9a1.85,1.85,0,0,0,.4.29,37,37,0,0,1,4.55,2.76,5.26,5.26,0,0,1,2.9,4.68,3.68,3.68,0,0,1-.91,2.23A11.77,11.77,0,0,1,30.4,34a9.22,9.22,0,0,1-3.95.46,4.56,4.56,0,0,1-2.79-1.22A1.4,1.4,0,0,1,23.33,32.2Z"/></g></g></svg>