<svg xmlns="http://www.w3.org/2000/svg" viewBox="0 0 82.58 29.19"><title>sent</title><g id="Layer_2" data-name="Layer 2"><g id="Layer_1-2" data-name="Layer 1"><g id="UisQ7i.tif"><path d="M81,26.89c-.59.22-1,.82-1.59.95a2.94,2.94,0,0,1-3.21-1.95,2.94,2.94,0,0,1,2.31-3.33c1-.16,2.31,1.19,2.43,2.39L81,26.31Z"/><path d="M21.62,21.51c-.3.22-.06.49,0,.71.71,2.14,1.77,3.11,4,2.83,1.28-.16,2.58-.12,3.86-.36a9,9,0,0,0,1.1-.23,3.4,3.4,0,0,1,1.23-.06c1.29,0,1.41,1,1.32,1.85a2.05,2.05,0,0,1-1.77,1.66c-1.85.36-3.62,1.07-5.52,1.25A15,15,0,0,1,22.9,29a5.4,5.4,0,0,1-3.32-1.53c-1.48-1.34-1.73-3.2-2-5a25.14,25.14,0,0,1-.28-5.05.65.65,0,0,0-.63-.74c-1.07-.1-2-.42-2.16-1.68a3,3,0,0,1,1.67-2.84,12.85,12.85,0,0,1,4.26-1.35,40.16,40.16,0,0,1,6.47-.81c1.13,0,2.18.34,3.28.42.69.05.77.74.79,1.3a1,1,0,0,1-.92,1.09c-1,.21-2,.3-3,.53-1.62.37-3.22.81-4.84,1.22-.54.14-2.11.39-1.94,1.16a4.53,4.53,0,0,1,.1.91c0,.49.54.59.87.59A6.77,6.77,0,0,0,23,16.89c1.64-.49,3.37-.41,5-.8a4.74,4.74,0,0,1,2-.16c.62.12.95.43.76,1.09s-.38,1.32-.56,2c-.09.29-.85.25-1.22.39a17.44,17.44,0,0,0-3.32.93"/><path d="M3.12,27.71a3,3,0,0,1-.94-.1c-.81-.37-1.59-.9-1.64-1.86A2,2,0,0,1,2,23.91c1.52-.59,2.49-.34,4-.32.69,0,2.79.5,3.25.28a10.17,10.17,0,0,0,1.78-1,1.53,1.53,0,0,0,.18-2.5c-.65-.47-1.21-1-1.9-1.47-1.2-.75-2.66-.62-3.85-1.33-1.8-1.07-3.7-1.93-5-3.77s.14-4.42,1.63-5a31.23,31.23,0,0,1,9.27-1.7C12.45,7,13,7.47,13.08,8.3A1.64,1.64,0,0,1,11.73,10c-1.78.52-3.68.36-5.45.91l-.2,0c-.52.22-1.44.2-1.45.76S5.29,13,5.94,13.3c2.22,1.15,4.61,2,6.62,3.5,1.61,1.19,3,2.63,2.94,4.9a5.13,5.13,0,0,1-2.38,4,11,11,0,0,1-8,2.1A8.54,8.54,0,0,1,3.12,27.71Z"/><path d="M37.49,24.6c-.1,1-1.1,2.48-1.9,2.5s-1.29-.67-1.45-1.54a7.84,7.84,0,0,1,0-1.94c.07-1.39.31-2.78.26-4.18a1.38,1.38,0,0,1,0-.35c.43-1.92.77-3.88,1.32-5.77a2.08,2.08,0,0,1,3.14-1.2c1.59,1,2.86,2.88,4.06,4.36.82,1,1.81,2.8,2.69,3.72.24.27.56.62.94.46s.59-5.09.14-6.31a4.84,4.84,0,0,1,.58-4.22,1.75,1.75,0,0,1,2.87,0,7.84,7.84,0,0,1,1,4,45,45,0,0,1-.73,8.8,6.33,6.33,0,0,1-2.58,4.12c-.78.53-1.53.1-2.19-.27-2-1.1-3.28-4.61-4.8-6.4a10.25,10.25,0,0,1-1.39-1.82c-.16-.29-.39-.49-.64-.42C38.23,18.32,37.67,22.87,37.49,24.6Z"/><path d="M70.07,15.65a16.18,16.18,0,0,0-5-.05c-.76.08-1.48-.12-2.24,0s-.93.48-.78,1.07a51.13,51.13,0,0,1,.9,6.75A7.64,7.64,0,0,0,63.52,25c.71,2.07-.12,3.39-2.3,3.65a1.54,1.54,0,0,1-1.6-1.58,1.57,1.57,0,0,0,0-.68,27.93,27.93,0,0,1-1.15-8.18c-.09-2-.64-2.38-2.62-1.93a4.37,4.37,0,0,1-2.49-.23A1.84,1.84,0,0,1,52,13.81,2.34,2.34,0,0,1,54.06,12c2.19-.16,4.39-.28,6.58-.51a53.08,53.08,0,0,1,6,.14c1,0,2.08.16,3.12.27A4.91,4.91,0,0,1,72.34,13a1.4,1.4,0,0,1,.32,1.71c-.25.54-.58,1.23-1.43,1.1Z"/><path d="M82.29,5.58c-.83,3.47-1.24,7-1.88,10.51a3.75,3.75,0,0,1-1.16,2.3c-.72.61-.85.55-1.25-.26a7.85,7.85,0,0,1-.38-3.46A52.24,52.24,0,0,1,78,6.57c.11-.89.14-1.81.33-2.7a1.67,1.67,0,0,0,0-1.06A1.66,1.66,0,0,1,78.78.72,2.43,2.43,0,0,1,81.31.14a2.15,2.15,0,0,1,1.25,1.94A10.6,10.6,0,0,1,82.29,5.58Z"/></g></g></g></svg>