<svg xmlns="http://www.w3.org/2000/svg" viewBox="0 0 276.13 33.42"><title>tylerHayes</title><g id="Layer_2" data-name="Layer 2"><g id="Layer_1-2" data-name="Layer 1"><g id="EbzeCz.tif"><path d="M0,16.19C.68,14.66,2.2,14.31,3.55,14,12,11.9,19.91,8.36,28.11,5.62,30,5,31.87,4.42,33.77,3.88a7.52,7.52,0,0,1,1.84-.2,1.83,1.83,0,0,1,2.07,1.68A2.18,2.18,0,0,1,36.3,7.84a4,4,0,0,1-1.68.34c-2.79-.26-5.22,1-7.77,1.72-.67.19-1.3.53-1.94.74a2.53,2.53,0,0,0-1.79,2.85c.06,5.43-.41,10.89.85,16.26.48,2-.67,3.25-2.68,3.12a2,2,0,0,1-2-1.56A9,9,0,0,1,19,29q0-5.5,0-11c0-1.35-.15-2.71-.21-4.07,0-.54-.3-.62-.73-.49a82.26,82.26,0,0,0-11.39,4.1A12.12,12.12,0,0,1,2.5,18.65,2.27,2.27,0,0,1,0,17.43Z"/><path d="M114.8,24.32a4.35,4.35,0,0,0-.19,2.36,2.2,2.2,0,0,1-1.87,2.72c-1.68.17-2.72-.62-2.77-2.23-.08-2.61-.33-5.22-.26-7.84.06-1.8,0-3.61,0-5.41A2,2,0,0,1,112.4,12c.78.23,1.06-.06,1.35-.68a14.46,14.46,0,0,1,2.87-4.16c2.77-2.79,6.45-.67,7.19,1.84a15.11,15.11,0,0,1,.32,7.64A16.71,16.71,0,0,1,122,22.15c-.31.48-.31.79.22,1.06,3.84,1.94,7.55,4.17,11.57,5.74.69.27,1.41.45,2.08.72a1.39,1.39,0,0,1,1,1.47,1.41,1.41,0,0,1-1.24,1.25,7,7,0,0,1-4-.43c-3.69-1.28-7.22-3-10.78-4.56a13.15,13.15,0,0,0-4.2-1.27C115.54,26,115,25.45,114.8,24.32Zm-.3-1.08.34.23c.42-1.32,1.57-1.69,2.57-2.26.15-.08.23-.28.36-.41,2.31-2.47,2.08-5.58,2.06-8.6a3.92,3.92,0,0,0-.74-2.13,9.49,9.49,0,0,0-1.41,1.75c-1.84,2.1-1.9,4.8-2.45,7.33C114.93,20.5,114.74,21.87,114.5,23.24Z"/><path d="M157.49,12.16c0-.54.06-1,.14-1.5.12-.78.29-1.62,1.25-1.73A2.19,2.19,0,0,1,161,10.06a8.75,8.75,0,0,1,.88,3.51c.48,2.94.72,5.91,1.29,8.84.14.74.45.9,1.12.79,3.12-.5,6.25-1,9.37-1.46.59-.09.79-.17.69-1-.62-5.07-1.87-10-2.37-15.13a12.45,12.45,0,0,1,.26-3.85A2,2,0,0,1,174.31,0c1,0,1.72.66,1.91,1.92.21,1.43.14,2.87.21,4.31.18,3.55,1,7,1.54,10.48.14.94.34,1.88.5,2.82a3.56,3.56,0,0,0,1.13,2.28,2,2,0,0,1,.48,2.35,2.83,2.83,0,0,0,0,2.14,21.42,21.42,0,0,1,1,4.41,2.36,2.36,0,0,1-.84,2.38,2.13,2.13,0,0,1-2.31,0,2.45,2.45,0,0,1-1.07-1.62c-.51-1.88-.79-3.81-1.35-5.69-.19-.62-.37-.73-1-.65-3.14.43-6.23,1.1-9.32,1.73-1,.2-1,.67-.73,1.41a3.86,3.86,0,0,1,.23,2.17c-.12.84-.39,1.64-1.37,1.79a2.11,2.11,0,0,1-2.18-1,12.54,12.54,0,0,1-1.43-4.38c-.89-3.81-1.37-7.68-1.93-11.54C157.67,14.23,157.59,13.16,157.49,12.16Z"/><path d="M191.26,26.5a1.93,1.93,0,1,1-3.77.75,11.54,11.54,0,0,1,0-4.61,99.25,99.25,0,0,1,1.77-10,20.14,20.14,0,0,1,1-3C191.21,7.48,193,6.9,195.1,8a10.69,10.69,0,0,1,3.14,3.07,16,16,0,0,1,2.4,4.34,78.32,78.32,0,0,1,3,7.38c.13.43.48.61.81.85a2.24,2.24,0,0,1,.81,3.17,1.25,1.25,0,0,0,0,1.05,7.07,7.07,0,0,1,.41,2.37c0,.87-.14,1.67-1.09,2a2,2,0,0,1-2.29-.94,11.31,11.31,0,0,1-1.55-3.77c-.21-.8-.57-1-1.3-.95-1.84,0-3.56.8-5.41.75C193,27.23,192,27.41,191.26,26.5Zm7.93-3.6c.15-.78-.41-1.39-.66-2.1a54.43,54.43,0,0,0-3.43-7.73c-.29-.54-.7-1.12-1.3-1s-.72.87-.81,1.42a106.68,106.68,0,0,0-1.83,10.79C193.58,22.7,196.49,23.45,199.19,22.9Z"/><path d="M95.55,30.85a12.71,12.71,0,0,1-5.12-1.1c-2.85-1.3-4-3.74-4.64-6.6a58.88,58.88,0,0,1-.59-7.26c0-.54-.1-.88-.62-1.13a3.42,3.42,0,0,1-1-.75c-1.19-1.19-1-2.33.45-3.19a3.06,3.06,0,0,1,.92-.37A112.57,112.57,0,0,0,97.4,7.3a18.07,18.07,0,0,1,3.71-.55c.69,0,1.57-.09,1.79.74s-.62,1.15-1.24,1.43a58.06,58.06,0,0,1-9.32,3.41l-.42.12c-3,1.13-2.37.93-2.48,3.83a6.88,6.88,0,0,0,0,2c.18.74.26.86,1,.59a27.58,27.58,0,0,1,7.28-1.77c.65,0,1.32,0,1.56.75s-.25,1.19-.77,1.56c-1.58,1.15-3.5,1.54-5.24,2.34a21.23,21.23,0,0,0-2,1c-1.18.7-1.17.82-.44,1.93a7.2,7.2,0,0,0,7.15,2.62c1-.26,2.08-.44,3.1-.77a1.33,1.33,0,0,1,1.65.56c.42.71,0,1.22-.52,1.62A10.51,10.51,0,0,1,97,30.73C96.46,30.81,95.91,30.82,95.55,30.85Z"/><path d="M264.91,12.53c-1.37-.23-2,.54-2.8,1a6.53,6.53,0,0,0-2,2c-.58.86-.49,1.32.48,1.73a32.57,32.57,0,0,0,5.8,1.75,37,37,0,0,1,7.72,2.28c1,.45,2,1,2,2.25a2.88,2.88,0,0,1-1.72,2.64,94.12,94.12,0,0,1-9.6,4.49,7.22,7.22,0,0,0-1.82,1c-1.22,1-2.6.93-3.3-.11a2.46,2.46,0,0,1,.91-3.43,24.7,24.7,0,0,1,4.67-2,53.62,53.62,0,0,0,5.14-2.29c.21-.09.57-.14.47-.49s-.38-.15-.57-.22c-3.35-1.18-7-1.22-10.31-2.44a10.94,10.94,0,0,1-3.11-1.65,3.45,3.45,0,0,1-1.12-4.44A11.69,11.69,0,0,1,262.92,9a3.45,3.45,0,0,1,2.56.42,1.75,1.75,0,0,1,1.06,2.09A1.48,1.48,0,0,1,264.91,12.53Z"/><path d="M207.88,11.35c-.07-.69-.06-1.38.64-1.76a2,2,0,0,1,2.18.3,7.11,7.11,0,0,1,2.13,3.3,7.4,7.4,0,0,0,2.07,3c.65.5,1.16.37,2,.1,3.19-1.1,3.94-4,5.31-6.51.25-.45.43-.81-.36-1s-1.12-1.62-.73-2.62a2.94,2.94,0,0,1,3.54-1.69,2.47,2.47,0,0,1,2.07,3,21.67,21.67,0,0,1-4.06,9.24,7,7,0,0,0-1.4,4.62,65.06,65.06,0,0,0,.44,6.83c.25,1.49-.36,2.53-1.41,2.76s-2.2-.5-2.59-2c-.15-.6-.18-1.23-.32-1.84-.39-1.71-.07-3.46-.37-5.17a1.37,1.37,0,0,0-1.21-1.31c-4.4-1-6.58-4.18-7.84-8.21a1.13,1.13,0,0,1-.06-.32C207.87,11.79,207.88,11.57,207.88,11.35Z"/><path d="M48.1,24.41c-.15-1.53.26-3-.47-4.36-.23-.44-.39-.67-1-.66a7,7,0,0,1-6.12-3.14,9.94,9.94,0,0,1-2.05-4.47c-.11-1,0-2,1.12-2.38a2.27,2.27,0,0,1,2.85,1.08,21.91,21.91,0,0,0,2,3.06,12.69,12.69,0,0,0,1,1.15,2.09,2.09,0,0,0,3.08,0,8.71,8.71,0,0,0,2.57-5,10.94,10.94,0,0,1,.57-2.47A1.9,1.9,0,0,1,54,6c1,.18,1.23.92,1.3,1.79a11.89,11.89,0,0,1-2.62,8.13,1.25,1.25,0,0,0-.37.77c-.06,4.23-.4,8.47.25,12.7a5.51,5.51,0,0,1-.1,1.76A1.59,1.59,0,0,1,51,32.68a2.08,2.08,0,0,1-2.15-1.07,5.33,5.33,0,0,1-.56-2.24A27.87,27.87,0,0,1,48.1,24.41Z"/><path d="M241.55,31.14A10.21,10.21,0,0,1,236,29.87c-3.75-2-4.63-5.56-4.52-9.29,0-1.1.08-2.2.11-3.31a2.3,2.3,0,0,1,2.78-2.36,1.63,1.63,0,0,0,1.21-.29c3.91-2.15,7.81-4.32,12.25-5.23a3.81,3.81,0,0,1,1.54-.06c.66.14,1.31.33,1.43,1.17a1.5,1.5,0,0,1-1,1.68c-1.12.46-2.28.81-3.4,1.28-2.93,1.21-5.94,2.25-8.32,4.48A8.43,8.43,0,0,0,236,20.57a4.85,4.85,0,0,0,.29,4.15c1.29,2.4,3.46,3.1,6.05,2.83a12.56,12.56,0,0,0,5-1.3,1.31,1.31,0,0,1,1.64.19,1.35,1.35,0,0,1,0,1.75,5.6,5.6,0,0,1-2.45,2A10,10,0,0,1,241.55,31.14Z"/><path d="M67.57,12.8c.23,2.86.19,5.74.7,8.58a11,11,0,0,0,.25,1.17c.85,2.87,2.09,4.44,5.6,4.31a19,19,0,0,1,4.94,0c.79.17,1.43.49,1.51,1.41A1.47,1.47,0,0,1,79.42,30c-3.59.82-7.18,1.43-10.79,0A6.85,6.85,0,0,1,64,24.2q-.72-5.64-1-11.31a7.23,7.23,0,0,1,.21-2c.34-1.51.87-2,2.18-2s1.76.44,2.13,1.92A8.62,8.62,0,0,1,67.57,12.8Z"/><path d="M239.48,24.67c-1.07-.14-2-.21-2.26-1.31a1.81,1.81,0,0,1,1.24-2.1,29.8,29.8,0,0,1,5.65-1.9,2.2,2.2,0,0,1,1.41.09c.85.36,1.12,1.13.45,1.75A14.49,14.49,0,0,1,239.48,24.67Z"/></g></g></g></svg>