<svg xmlns="http://www.w3.org/2000/svg" viewBox="0 0 212.89 29.38"><title>workingOn</title><g id="Layer_2" data-name="Layer 2"><g id="Layer_1-2" data-name="Layer 1"><g id="_1JauMx.tif" data-name="1JauMx.tif"><path d="M45.37,13.75a17.28,17.28,0,0,1,.4-7A7.36,7.36,0,0,1,48,3c.39-.31.64-.72,1-1a7.67,7.67,0,0,1,10.17-.14,5,5,0,0,1,1.55,3.7,12.77,12.77,0,0,1-1.5,7.34,5,5,0,0,1-.66,1c-.89.92-.9,1.11-.08,2a20.9,20.9,0,0,0,5.22,3.73c1.23.72,2.56,1.27,3.78,2a3.42,3.42,0,0,1,1.36,2.3c.19.73-1.27,1.71-2,1.43-2.17-.87-4.4-1.61-6.51-2.61a10.31,10.31,0,0,1-3.58-2,1.6,1.6,0,0,0-.56-.4c-2.54-1.11-3.32-3.39-3.73-5.84a1.66,1.66,0,0,1,1.26-1.69c1.16-.44,1.63-1.43,2.27-2.37A6.21,6.21,0,0,0,57,6.82,2.38,2.38,0,0,0,53.84,4.5a10.76,10.76,0,0,0-2.5,1.09,1.62,1.62,0,0,0-.89,1c-.1.23-.78.71-.93,1a5.75,5.75,0,0,0-.2,3.15,48.08,48.08,0,0,0,.52,6c.32,1.57.4,3.16.73,4.72.25,1.13-.23,1.72-1.5,2.08s-2.16,0-2.45-1.13-.31-2.26-.55-3.37A21,21,0,0,1,45.37,13.75Z"/><path d="M134.23,18.27A5.48,5.48,0,0,0,138.07,17c.21-.16,1-.63,1.06-1.28s-.34-.95-.37-1.32a.62.62,0,0,0-.78-.56c-.41.08-.84.05-1.26.13a1.69,1.69,0,0,1-2-.92,1.89,1.89,0,0,1,.24-2.44c.59-.51.65-1.31,1.17-1.87a2.09,2.09,0,0,1,2.92-.21,13,13,0,0,1,4.2,3.55,5.38,5.38,0,0,1,.59,2.52,26.75,26.75,0,0,1,.13,5.73,23.91,23.91,0,0,0,.45,6.32c.31,1.54,0,2.43-1,2.69a2.59,2.59,0,0,1-3.11-1.56,19.51,19.51,0,0,1-.78-5.89c0-.43.22-1-.29-1.25s-.91.06-1.3.26a9.55,9.55,0,0,1-4.15.92A11.91,11.91,0,0,1,127.39,20a7.6,7.6,0,0,1-3.56-6.92A17.74,17.74,0,0,1,125.5,6.9a14.58,14.58,0,0,1,4.36-5.2A9,9,0,0,1,133.62.28,3.32,3.32,0,0,1,137.09,3c.06.7-1.18,1.43-1.9,1.32-2.07-.32-3.37.75-4.56,2.17a9.55,9.55,0,0,0-2.63,6C127.94,16.24,130.62,18.46,134.23,18.27Z"/><path d="M18.8,9.76a5.14,5.14,0,0,0-.09-2,13.76,13.76,0,0,1-1.09-3.32c.13-1.71,2.23-2.32,3.66-1.42a1,1,0,0,1,.35.46,10.93,10.93,0,0,1,1,5.13c-.1,1.44-.06,2.89-.26,4.36a26,26,0,0,1-1.85,6.52c-.6,1.41-2.93,3.46-4.38,3.21a4.42,4.42,0,0,1-2.72-1.38,25.92,25.92,0,0,1-2.27-2.82c-.69-1-.94-.88-1.59.18-1,1.66-1.84,3.53-3.94,4.26a3.18,3.18,0,0,1-4.34-2.32,35.1,35.1,0,0,1-1.06-9.4C.24,10-.06,8.62,0,7.38A6.9,6.9,0,0,1,.4,4.79,2.06,2.06,0,0,1,2.15,3.52a1.48,1.48,0,0,1,1.21,1.6c-.26,2.07.27,4.12,0,6.21a16.78,16.78,0,0,0,.87,7c.25.8.55.83,1.16.25A7.65,7.65,0,0,0,6.83,16a7.87,7.87,0,0,0,1-4.5c-.18-1.26.67-1.58,2-2.06a1.7,1.7,0,0,1,2.24,1.08,31.72,31.72,0,0,0,4.05,7.08c.55.63.81.68,1.24-.1.86-1.53.93-3.24,1.26-4.89A8.78,8.78,0,0,0,18.8,9.76Z"/><path d="M194.89,17.8a17.46,17.46,0,0,0-1.6-8,14.34,14.34,0,0,1-.9-2.36c-.38-1.59-1.73-2.66-2.13-4.24-.36-1.42.51-2.5,2-2.23a2.49,2.49,0,0,1,2.1,1.62c1.11,2.84,2.49,5.56,3.61,8.41a23,23,0,0,1,1.22,7.65,7.26,7.26,0,0,1-.58,2.55c-.58,1.66-2.49,2.18-4.16,1.13a33.21,33.21,0,0,1-4.81-3.8c-1.5-1.37-3-2.76-4.45-4.15-.19-.17-.36-.41-.66-.35s-.33.45-.37.72a24.15,24.15,0,0,0,.09,5.17c0,.66.15,1.47-.67,1.63s-1.84.63-2.7-.13a1.48,1.48,0,0,1-.54-1c-.26-2.12-.27-4.28-.62-6.38-.27-1.67,0-3.37-.52-5a1.65,1.65,0,0,1,.59-1.94,2.16,2.16,0,0,1,2.35-.31,22.07,22.07,0,0,1,6.76,5.68c1.7,1.91,3.78,3.41,5.54,5.25A.38.38,0,0,0,194.89,17.8Z"/><path d="M120.35,15a32.34,32.34,0,0,1-.21,3.41,2,2,0,0,1-2,1.93,3.9,3.9,0,0,1-2.77-.73,57.22,57.22,0,0,1-8.07-6.41c-.17-.16-.32-.49-.63-.3s-.15.46-.14.72A54.49,54.49,0,0,0,107,19.7a1.47,1.47,0,0,1-1,1.71,2.07,2.07,0,0,1-2.5-.36,3.4,3.4,0,0,1-1-2.21c0-3.14-.58-6.23-.9-9.34-.11-1.05-.54-2-.11-3.13.61-1.62,1.81-2.27,3.12-1.2a78.22,78.22,0,0,1,6.24,5.29c1.45,1.45,3.06,2.73,4.61,4.07.56.47.6,0,.58-.39-.07-1.4-.18-2.8-.27-4.2a35.27,35.27,0,0,0-.74-5.22,2,2,0,0,0-.17-.65,1.57,1.57,0,0,1-.1-2.07,3,3,0,0,1,3-.94A2.21,2.21,0,0,1,119,3c.36,3.43.65,6.87,1.23,10.28A15.43,15.43,0,0,1,120.35,15Z"/><path d="M73.11,8c0,.3,0,.86.08,1.41,0,.17,0,.34.23.4s.27-.12.38-.24c1.62-1.77,3.3-3.5,4.86-5.33a6.25,6.25,0,0,1,1.81-1.7,1.94,1.94,0,0,1,2,0A1.57,1.57,0,0,1,83,4.5a12.1,12.1,0,0,1-2.75,4c-1.1,1-1.9,2.29-3,3.33-1.39,1.28-1,2.06.78,2.87a36.27,36.27,0,0,0,4.29,1.49,6,6,0,0,1,2.36,1.13,1.11,1.11,0,0,0,.6.32C86.75,17.68,87,19,87.44,20c.53,1.18-.12,2-1.4,1.87a6.79,6.79,0,0,1-3.12-1A5.81,5.81,0,0,0,81,20.17a22,22,0,0,1-6-1.91c-.54-.28-.55,0-.49.42a7.67,7.67,0,0,1,.13,1.06c.05,1.35-.38,2-1.52,2.14a2.13,2.13,0,0,1-2.71-1.59,27.77,27.77,0,0,1-.75-4.23c-.36-2.29-.54-4.6-.72-6.91a13.73,13.73,0,0,1-.21-3.08C69,3.73,69.86,3.29,72,4c1.21.41,1,1.72,1.17,2.69A5.37,5.37,0,0,1,73.11,8Z"/><path d="M26.32,13.85c.15-3,.47-5.92,2.81-8.17a3.72,3.72,0,0,0,.37-.57c1.18-1.77,2.56-3.19,4.86-3.41a4.26,4.26,0,0,1,3.89,2,13.13,13.13,0,0,1,2.89,8.45A10.33,10.33,0,0,1,40,16.62a10.65,10.65,0,0,1-2.6,3.46c-2,1.62-4.22,3-7,1.81a7.35,7.35,0,0,1-3-2.77C26.27,17.54,26.3,15.69,26.32,13.85Zm11.23-2.37A9.33,9.33,0,0,0,35.92,6.3c-.18-.28-.45-.66-.86-.51A4.19,4.19,0,0,0,34,6.33,11.81,11.81,0,0,0,32.48,8,14.27,14.27,0,0,0,31,10.92a7.25,7.25,0,0,0,0,5.51c.61,1.37,1.72,2.15,2.66,1.82a5.44,5.44,0,0,0,2.45-1.71A7.75,7.75,0,0,0,37.55,11.48Z"/><path d="M178.52,15.45A4.41,4.41,0,0,1,176.65,19a11.4,11.4,0,0,1-6,2.51,7.93,7.93,0,0,1-4.81-1,7.77,7.77,0,0,1-3.84-4,6.69,6.69,0,0,1,.18-4.57,10.32,10.32,0,0,1,1.92-3.61,1.2,1.2,0,0,0,.23-.73c.14-1.32,1-1.76,2.35-1.86,3.13-.24,5.65,1.12,8,2.83A9.45,9.45,0,0,1,178.52,15.45Zm-12.21-1a3.47,3.47,0,0,0,2.58,3.28,6.46,6.46,0,0,0,4.4-.4A2.43,2.43,0,0,0,174.77,14a5.91,5.91,0,0,0-3.83-3.65c-.18,0-.42-.25-.52,0-.43.89-1.25.71-2,.73a1.38,1.38,0,0,0-1.34.82C166.85,12.74,166.22,13.49,166.31,14.45Z"/><path d="M89.89,5c-.25-1,.58-1.52,1.21-1.92a1.68,1.68,0,0,1,2.21.17A4.88,4.88,0,0,1,95,5.84a41,41,0,0,1,1,7,35.51,35.51,0,0,0,1,7.55,1.65,1.65,0,0,1-.68,2.07,2.62,2.62,0,0,1-2.66-.29c-1.33-1.25-1.36-3-1.6-4.58-.36-2.48-.38-5-.88-7.47A29.91,29.91,0,0,0,90.05,6.1,5.32,5.32,0,0,1,89.89,5Z"/><path d="M206.89,18.4a1.76,1.76,0,0,1,1.65-1.78c.82.07,1.73-.49,2.46.42a6.88,6.88,0,0,1,1.89,4.07c0,.77-1.08,1.59-2,1.54A4.32,4.32,0,0,1,206.89,18.4Z"/><path d="M212,10.17c-.24,1.24-.4,1.81-1.79,1.94-.88.08-2.45-.45-2.68-1.07-.33-.92-.9-1.87-.05-2.84a7.1,7.1,0,0,1,2.11-1.35.64.64,0,0,1,.74.11A6.24,6.24,0,0,1,212,10.17Z"/></g></g></g></svg>